<svg xmlns="http://www.w3.org/2000/svg" viewBox="0 0 252 144"><defs><style>.cls-1{fill:#414042;}.cls-2{fill:#c2b59b;stroke-width:0.25px;}.cls-2,.cls-5{stroke:#c2b59b;}.cls-2,.cls-3,.cls-5{stroke-miterlimit:10;}.cls-3,.cls-4{fill:#fff;}.cls-3{stroke:#fff;}.cls-5{fill:none;stroke-width:0.75px;}</style></defs><title>Artboard 16</title><g id="Layer_1" data-name="Layer 1"><rect class="cls-1" width="252" height="144"/><path class="cls-2" d="M39.4,85a2.3,2.3,0,0,1,2.14-1.69,2.44,2.44,0,0,1,2.29,2.6v4.15h-.26l0-.14v-4a2,2,0,1,0-4,0v4.15h-.27V85.9a2,2,0,1,0-4,0V90H35V83.3h.28v1.34a2.24,2.24,0,0,1,2-1.34A2.3,2.3,0,0,1,39.4,85Z"/><path class="cls-2" d="M45.51,86.67a3.17,3.17,0,0,1,2.92-3.37A2.8,2.8,0,0,1,51,85.19V83.3h.28V90H51V88.14A2.8,2.8,0,0,1,48.43,90,3.16,3.16,0,0,1,45.51,86.67Zm.28,0a2.88,2.88,0,0,0,2.64,3.08,3.15,3.15,0,0,0,0-6.17A2.89,2.89,0,0,0,45.79,86.67Z"/><path class="cls-2" d="M52.92,86.67A3.24,3.24,0,0,1,56,83.3a3.08,3.08,0,0,1,2.81,2v-4.9h.28V90h-.28v-2A3.08,3.08,0,0,1,56,90,3.23,3.23,0,0,1,52.92,86.67Zm.28,0A2.82,2.82,0,1,0,56,83.58,2.95,2.95,0,0,0,53.2,86.67Z"/><path class="cls-2" d="M66.33,88.5l.22.17A3.1,3.1,0,0,1,63.86,90a3.38,3.38,0,1,1,3.08-3.36v.14H61.06a2.91,2.91,0,0,0,2.8,2.94A2.87,2.87,0,0,0,66.33,88.5Zm-5.27-2h5.6a2.8,2.8,0,1,0-5.6,0Z"/><path class="cls-2" d="M74.1,86.67a3.24,3.24,0,0,1,3.08-3.37,3.08,3.08,0,0,1,2.81,2V83.32h.3v6.57a2.9,2.9,0,0,1-3.07,2.34h-.14V92h.14c1.66,0,2.79-1.17,2.79-2.06V88.08a3.08,3.08,0,0,1-2.81,2A3.23,3.23,0,0,1,74.1,86.67Zm.28,0a2.82,2.82,0,1,0,2.8-3.09A2.95,2.95,0,0,0,74.38,86.67Z"/><path class="cls-2" d="M82,86.67A3.1,3.1,0,1,1,85,90,3.24,3.24,0,0,1,82,86.67Zm.28,0A2.82,2.82,0,1,0,85,83.58,2.95,2.95,0,0,0,82.23,86.67Z"/><path class="cls-2" d="M89.24,86.67A3.1,3.1,0,1,1,92.33,90,3.24,3.24,0,0,1,89.24,86.67Zm.28,0a2.82,2.82,0,1,0,2.81-3.09A3,3,0,0,0,89.52,86.67Z"/><path class="cls-2" d="M96.54,86.67a3.24,3.24,0,0,1,3.08-3.37,3.08,3.08,0,0,1,2.81,2v-4.9h.28V90h-.28v-2a3.08,3.08,0,0,1-2.81,2A3.23,3.23,0,0,1,96.54,86.67Zm.28,0a2.82,2.82,0,1,0,2.8-3.09A2.95,2.95,0,0,0,96.82,86.67Z"/><path class="cls-2" d="M109.36,85h-.29c0-.83-1-1.46-2.07-1.46s-2.08.63-2.08,1.46c0,1.6,4.7,1.37,4.69,3.25,0,.94-1.11,1.74-2.61,1.74s-2.61-.8-2.61-1.74h.28c0,.83,1.08,1.46,2.33,1.46s2.33-.63,2.33-1.46c0-1.6-4.67-1.34-4.69-3.25,0-.94,1-1.74,2.36-1.74S109.36,84.1,109.36,85Z"/><path class="cls-3" d="M41.74,59.46h7.14V60H41.74V79h-.58V60H34v-.58h7.78Z"/><path class="cls-3" d="M66.67,69.5V79H66.1V69.5H52.9V79h-.57V59.46h.57v9.47H66.1V59.46h.57v10Z"/><path class="cls-3" d="M72.73,59.75v-.29h.57V79h-.57V59.75Z"/><path class="cls-3" d="M90.74,64.48v.29h-.57v-.29C90.17,62,87.58,60,84.46,60s-5.71,2-5.71,4.44c0,4.42,12.62,4.42,12.59,9.47,0,2.67-3.07,5-6.88,5s-6.89-2.32-6.89-5v-.29h.58V74c0,2.47,2.87,4.45,6.31,4.45s6.31-2,6.31-4.45c0-4.5-12.57-4.45-12.59-9.47,0-2.72,2.75-5,6.28-5S90.74,61.76,90.74,64.48Z"/><path class="cls-4" d="M94.47,78.8l-.06.17h-.63l.18-.4,8.31-18.93a.3.3,0,0,1,.52,0l8.32,18.93.17.4h-.63l-.06-.17-8.06-18.33Z"/><path class="cls-4" d="M115.73,78.68V79h-.57V59.75a.29.29,0,0,1,.51-.17L128.9,77.79l0-18v-.29h.57v.29l0,18.93a.29.29,0,0,1-.51.18L115.73,60.64Z"/><path class="cls-4" d="M135.53,79a.27.27,0,0,1-.29-.29V59.75a.28.28,0,0,1,.29-.29h7.2c4.5.38,7.89,4.77,7.43,9.76.46,5-2.93,9.38-7.43,9.75h-7.2Zm.29-.57h6.88c4.19-.38,7.29-4.48,6.89-9.15v-.06c.4-4.68-2.7-8.78-6.89-9.15h-6.88Z"/><path class="cls-3" d="M159.51,59.46h7.15V60h-7.15V79h-.57V60h-7.2v-.58h7.77Z"/><path class="cls-3" d="M184.44,69.5V79h-.57V69.5H170.68V79h-.58V59.46h.58v9.47h13.19V59.46h.57v10Z"/><path class="cls-3" d="M189.15,78.8l-.05.17h-.63l.17-.4L197,59.64a.29.29,0,0,1,.51,0l8.32,18.93.17.4h-.63l-.06-.17-8.06-18.33Z"/><path class="cls-3" d="M211.59,59.46h7.14V60h-7.14V79H211V60h-7.21v-.58h7.78Z"/><polyline class="cls-5" points="113.08 86.7 225.33 86.7 225.33 52.02 26.67 52.02 26.67 86.7 31.82 86.7"/></g></svg>