<svg xmlns="http://www.w3.org/2000/svg" xmlns:xlink="http://www.w3.org/1999/xlink" viewBox="0 0 252 144"><defs><style>.cls-1{fill:none;}.cls-2{fill:#9fbd3b;}.cls-3{fill:#fff;}.cls-4{fill:#9d9056;}.cls-5{clip-path:url(#clip-path);}.cls-6{fill:#abc178;}.cls-7{fill:#6e5321;}.cls-8{fill:#8ea3ae;}</style><clipPath id="clip-path"><path class="cls-1" d="M112.89,21h26.29A11.11,11.11,0,0,1,150.3,32.11V55a11.12,11.12,0,0,1-11.12,11.12H112.89A11.12,11.12,0,0,1,101.78,55V32.11A11.12,11.12,0,0,1,112.89,21Z"/></clipPath></defs><title>Artboard 3 copy</title><g id="Layer_1" data-name="Layer 1"><polygon class="cls-2" points="14.78 95.08 14.78 84.22 12.89 84.03 12.89 79.8 20.92 79.8 20.92 83.97 19.04 84.22 19.04 87.47 25.72 87.47 25.72 84.22 23.85 84.03 23.85 79.8 31.86 79.8 31.86 83.97 30 84.22 30 95.05 31.89 95.27 31.89 99.5 23.85 99.5 23.85 95.33 25.72 95.08 25.72 91.72 19.04 91.72 19.04 95.05 20.92 95.27 20.92 99.5 12.89 99.5 12.89 95.33 14.78 95.08"/><path class="cls-2" d="M43.22,79.77a7.4,7.4,0,0,1,7.39,7.39v5a7.4,7.4,0,0,1-7.39,7.35h-2a7.38,7.38,0,0,1-7.36-7.35v-5a7.37,7.37,0,0,1,7.36-7.39Zm2.68,7.39a2.68,2.68,0,0,0-2.68-2.71h-2a2.71,2.71,0,0,0-2.68,2.71v5a2.7,2.7,0,0,0,2.68,2.67h2a2.67,2.67,0,0,0,2.68-2.67Z"/><polygon class="cls-2" points="52.58 95.36 54.44 95.11 54.44 84.2 52.58 84 52.58 79.8 60.56 79.8 60.56 83.94 58.7 84.2 58.7 95.25 62.05 95.25 62.53 92.2 66.73 92.2 66.73 99.5 52.58 99.5 52.58 95.36"/><polygon class="cls-2" points="68.99 95.36 70.85 95.11 70.85 84.2 68.99 84 68.99 79.8 76.97 79.8 76.97 83.94 75.11 84.2 75.11 95.25 78.46 95.25 78.94 92.2 83.14 92.2 83.14 99.5 68.99 99.5 68.99 95.36"/><path class="cls-2" d="M85.39,99.5V95.25l1.7-.2,4.08-11.36-1.77-.11V79.8H99l5.41,15.28,1.58.17V99.5H98V95.25l1.43-.17L99,93.84h-6.6L92,95.11l1.41.14V99.5Zm12.1-9.92-1.75-5-1.8,5Z"/><polygon class="cls-2" points="120.12 83.97 120.12 79.77 128.1 79.77 128.1 83.92 126.24 84.17 126.24 99.5 119.22 99.5 114.34 85.94 114.34 95.08 116.2 95.3 116.2 99.5 108.23 99.5 108.23 95.36 110.09 95.11 110.09 84.22 108.23 84.03 108.23 79.83 116.97 79.83 121.98 93.89 121.98 84.17 120.12 83.97"/><path class="cls-2" d="M140.51,79.77a7.38,7.38,0,0,1,7.41,7.36v5a7.4,7.4,0,0,1-7.24,7.41H130.36V95.39l1.86-.26V84.2l-1.86-.26V79.77Zm0,15a2.7,2.7,0,0,0,2.7-2.73v-5a2.68,2.68,0,0,0-2.7-2.71h-4v10.4Z"/><polygon class="cls-2" points="160.24 95.08 160.24 84.22 158.35 84.03 158.35 79.8 166.38 79.8 166.38 83.97 164.5 84.22 164.5 87.47 171.18 87.47 171.18 84.22 169.31 84.03 169.31 79.8 177.32 79.8 177.32 83.97 175.46 84.22 175.46 95.05 177.35 95.27 177.35 99.5 169.31 99.5 169.31 95.33 171.18 95.08 171.18 91.72 164.5 91.72 164.5 95.05 166.38 95.27 166.38 99.5 158.35 99.5 158.35 95.33 160.24 95.08"/><polygon class="cls-2" points="185.75 84.22 185.75 95.05 187.64 95.28 187.64 99.5 179.61 99.5 179.61 95.33 181.5 95.08 181.5 84.22 179.61 84 179.61 79.77 187.64 79.77 187.64 83.94 185.75 84.22"/><polygon class="cls-2" points="189.9 95.36 191.75 95.11 191.75 84.2 189.9 84 189.9 79.8 197.87 79.8 197.87 83.94 196.01 84.2 196.01 95.25 199.37 95.25 199.85 92.2 204.05 92.2 204.05 99.5 189.9 99.5 189.9 95.36"/><polygon class="cls-2" points="206.3 95.36 208.16 95.11 208.16 84.2 206.3 84 206.3 79.8 214.28 79.8 214.28 83.94 212.42 84.2 212.42 95.25 215.77 95.25 216.25 92.2 220.45 92.2 220.45 99.5 206.3 99.5 206.3 95.36"/><path class="cls-2" d="M228.68,84.48a1.32,1.32,0,0,0-1.29,1.27,1.4,1.4,0,0,0,.45,1c2.68,1.83,11.78-.45,11.78,6.43,0,3.92-1.83,6.28-7.38,6.28h-9.05V92.71h3.92l.33,2.11h6.2c.85,0,1.27-.39,1.27-1.35a1.09,1.09,0,0,0-.22-.73c-1.86-1.81-12,.22-12-6.49,0-3.41,2-6.45,7.38-6.45h9v6.79H235.2l-.31-2.11Z"/><path class="cls-2" d="M12.45,116.35v-2.6l1-.12L16,106.68l-1.08-.06v-2.31h5.86l3.3,9.33,1,.11v2.6H20.15v-2.6l.88-.11-.26-.75h-4l-.28.77.87.09v2.6Zm7.39-6.06-1.07-3.06-1.1,3.06Z"/><polygon class="cls-2" points="27.59 106.89 27.32 108.75 24.72 108.75 24.72 104.31 35.62 104.31 35.62 108.75 33.06 108.75 32.76 106.89 31.49 106.89 31.49 113.63 32.63 113.75 32.63 116.35 27.75 116.35 27.75 113.75 28.89 113.61 28.89 106.89 27.59 106.89"/><polygon class="cls-2" points="49.2 108.44 51.02 104.31 56.12 104.31 56.12 106.87 54.99 107 54.99 113.66 56.12 113.82 56.12 116.35 51.25 116.35 51.25 113.78 52.38 113.64 52.38 107.46 50.13 112.35 48.28 112.35 46.03 107.48 46.03 113.64 47.16 113.78 47.16 116.35 42.29 116.35 42.29 113.82 43.42 113.66 43.42 107 42.29 106.87 42.29 104.31 47.39 104.31 49.2 108.44"/><path class="cls-2" d="M57.59,116.35v-2.6l1-.12,2.5-6.95L60,106.62v-2.31h5.86l3.31,9.33,1,.11v2.6H65.29v-2.6l.88-.11-.26-.75h-4l-.28.77.86.09v2.6ZM65,110.29l-1.07-3.06-1.1,3.06Z"/><path class="cls-2" d="M81.45,104.32v2.54l-1.24.17v5.25a4.07,4.07,0,0,1-4.07,4.07h-.45a4.07,4.07,0,0,1-4.06-4.07v-.91h2.56v.91h0a1.48,1.48,0,0,0,1.48,1.49h.45a1.5,1.5,0,0,0,1.5-1.49V107l-1.07-.14v-2.57Z"/><polygon class="cls-2" points="82.91 116.35 82.91 113.8 84.06 113.65 84.06 107.01 82.91 106.89 82.91 104.29 92.23 104.29 92.23 108.78 89.63 108.78 89.36 106.91 86.67 106.91 86.67 108.98 88.63 108.98 88.63 111.59 86.67 111.59 86.67 113.75 89.36 113.75 89.63 111.87 92.23 111.87 92.23 116.35 82.91 116.35"/><path class="cls-2" d="M97.35,107.17a.8.8,0,0,0-.79.77.87.87,0,0,0,.27.64c1.64,1.12,7.2-.28,7.2,3.93,0,2.39-1.12,3.84-4.51,3.84H94V112.2h2.39l.21,1.29h3.79c.52,0,.78-.24.78-.83a.72.72,0,0,0-.14-.45c-1.14-1.1-7.32.14-7.32-4,0-2.08,1.22-3.94,4.51-3.94h5.53v4.15h-2.41l-.19-1.29Z"/><polygon class="cls-2" points="108.32 106.89 108.05 108.75 105.44 108.75 105.44 104.31 116.35 104.31 116.35 108.75 113.78 108.75 113.49 106.89 112.22 106.89 112.22 113.63 113.35 113.75 113.35 116.35 108.48 116.35 108.48 113.75 109.61 113.61 109.61 106.89 108.32 106.89"/><polygon class="cls-2" points="121.52 107.01 121.52 113.63 122.67 113.77 122.67 116.35 117.76 116.35 117.76 113.8 118.92 113.64 118.92 107.01 117.76 106.87 117.76 104.29 122.67 104.29 122.67 106.84 121.52 107.01"/><path class="cls-2" d="M128.48,107.17a1.64,1.64,0,0,0-1.66,1.63v3a1.66,1.66,0,0,0,1.66,1.65h1.88l.24-1.62h2.6v4.48h-4.72a4.51,4.51,0,0,1-4.52-4.51v-3a4.5,4.5,0,0,1,4.52-4.49h4.72v4.46h-2.6l-.24-1.6Z"/><polygon class="cls-2" points="145.79 113.4 147.82 106.99 146.96 106.89 146.96 104.31 151.84 104.31 151.84 106.89 150.8 107.01 147.72 116.35 143.81 116.35 140.79 107.01 139.83 106.89 139.83 104.31 144.71 104.31 144.71 106.89 143.83 106.99 145.79 113.4"/><polygon class="cls-2" points="156.97 107.01 156.97 113.63 158.13 113.77 158.13 116.35 153.22 116.35 153.22 113.8 154.37 113.64 154.37 107.01 153.22 106.87 153.22 104.29 158.13 104.29 158.13 106.84 156.97 107.01"/><polygon class="cls-2" points="159.59 116.35 159.59 113.8 160.74 113.65 160.74 107.01 159.59 106.89 159.59 104.29 168.91 104.29 168.91 108.78 166.31 108.78 166.03 106.91 163.34 106.91 163.34 108.98 165.31 108.98 165.31 111.59 163.34 111.59 163.34 113.75 166.03 113.75 166.31 111.87 168.91 111.87 168.91 116.35 159.59 116.35"/><polygon class="cls-2" points="185.59 104.31 185.59 106.89 184.62 107.01 182.64 116.35 179.32 116.35 177.94 111.47 176.51 116.35 173.01 116.35 171.25 107.01 170.29 106.89 170.29 104.31 175.09 104.31 175.09 106.89 174.22 106.99 175.04 111.99 176.47 107.44 179.18 107.44 180.78 111.99 181.66 106.99 180.78 106.89 180.78 104.31 185.59 104.31"/><path class="cls-2" d="M202.19,108.2c0,2.24-1.34,3.46-3.6,3.46H196v2l1.14.14v2.58h-4.89V113.8l1.14-.16V107l-1.14-.15v-2.55h6.37a3.27,3.27,0,0,1,3.6,3.46Zm-6.22.86h2.78a.83.83,0,0,0,.84-.86v-.43a.76.76,0,0,0-.84-.86H196Z"/><path class="cls-2" d="M201.76,116.35v-2.6l1-.12,2.49-6.95-1.08-.06v-2.31h5.86l3.3,9.33,1,.11v2.6h-4.88v-2.6l.88-.11-.26-.75h-4l-.27.77.86.09v2.6Zm7.39-6.06-1.06-3.06L207,110.29Z"/><path class="cls-2" d="M223,104.32c2.32,0,3.6,1.11,3.6,3.45v.45a3.22,3.22,0,0,1-2.55,3.36l.84,2,1.62.19v2.53H223l-1.91-4.69h-1.52v2l1.14.12v2.58H215.8v-2.55l1.14-.15V107l-1.14-.15v-2.54Zm-3.45,4.74h3.58a.79.79,0,0,0,.87-.84v-.45a.81.81,0,0,0-.87-.85h-3.58Z"/><polygon class="cls-2" points="238.15 106.94 235.72 109.25 237.35 113.45 238.94 113.64 238.94 116.35 235.48 116.35 233.53 111.35 231.7 113.2 231.7 113.66 232.84 113.78 232.84 116.35 227.96 116.35 227.96 113.82 229.1 113.66 229.1 106.99 227.96 106.86 227.96 104.29 232.84 104.29 232.84 106.82 231.7 106.98 231.7 109.77 234.68 106.94 234.06 106.86 234.06 104.29 238.94 104.29 238.94 106.82 238.15 106.94"/><path class="cls-3" d="M139.18,16.81H112.89a15.31,15.31,0,0,0-15.3,15.3V55a15.32,15.32,0,0,0,15.3,15.31h26.29A15.32,15.32,0,0,0,154.48,55V32.11a15.31,15.31,0,0,0-15.3-15.3"/><path class="cls-4" d="M139.18,16.81H112.89a15.31,15.31,0,0,0-15.3,15.3V55a15.32,15.32,0,0,0,15.3,15.31h26.29A15.32,15.32,0,0,0,154.48,55V32.11a15.31,15.31,0,0,0-15.3-15.3M152.56,55a13.39,13.39,0,0,1-13.38,13.38H112.89A13.39,13.39,0,0,1,99.51,55V32.11a13.39,13.39,0,0,1,13.38-13.38h26.29a13.39,13.39,0,0,1,13.38,13.38Z"/><g class="cls-5"><path class="cls-6" d="M102.47,54.58s30.74-19.87,65.58-14.06l-48.91,36-16.67-22"/><path class="cls-7" d="M99.1,40.84s36.53,2.23,61.14,27.58c21.12,51.13-60.77,0-60.77,0s-.37-27.95-.37-27.58"/><path class="cls-8" d="M162.81,53.59S127,46,96.53,63.87l58.56,16.21s7.82-26.85,7.72-26.49"/></g></g></svg>