<svg xmlns="http://www.w3.org/2000/svg" viewBox="0 0 252 144"><defs><style>.cls-1{fill:#fff;}.cls-2{fill:#96ca45;}</style></defs><title>Artboard 12</title><g id="Layer_5" data-name="Layer 5"><path class="cls-1" d="M59.18,66.39h-10V34.33H70.58v4L69,42.39H59.18v5.18H69v8H59.18Z"/><path class="cls-1" d="M92.93,34.33a3.83,3.83,0,0,1,4,4V50.91a3.94,3.94,0,0,1-2.65,3.62l3.16,7.87v4h-9.8l-2.71-10h-2v10h-10V34.33Zm-10,8.06v6h4v-6Z"/><path class="cls-1" d="M100.16,66.39V34.33h10V66.39Z"/><path class="cls-1" d="M112.9,45.05V38.32a3.83,3.83,0,0,1,4-4h17.41v3.94l-1.56,4.12h-9.85v1.47l8.71,5.81c2.19,1.47,2.7,2.89,2.7,5.45V62.4a3.83,3.83,0,0,1-4,4H112.9v-8h11.4V56.27l-8.7-5.77C113.4,49,112.9,47.61,112.9,45.05Z"/><path class="cls-1" d="M137.08,66.39V34.33h20a3.84,3.84,0,0,1,4,4v7.37A3.91,3.91,0,0,1,157,49.54v.87a3.92,3.92,0,0,1,4.12,3.89v8.1a3.84,3.84,0,0,1-4,4Zm14-24h-4V46h4Zm-4,16h4V54h-4Z"/><path class="cls-1" d="M164.32,66.39V34.33h21.43v4l-1.6,4.07h-9.84V46h9.84v8h-9.84v4.4h11.44v8Z"/><path class="cls-1" d="M188.5,66.39V34.33h21.43v4l-1.6,4.07h-9.84V46h9.84v8h-9.84v4.4h11.44v8Z"/><path class="cls-1" d="M136.94,104.55h-10v-32h21.43v4l-1.56,4.08h-9.84v5.17h9.84v8h-9.84Z"/><path class="cls-1" d="M170.41,84.13V72.5h10v32.05h-10V92.14h-4v12.41h-10v-32h10V84.13Z"/><path class="cls-1" d="M199.91,104.55l2,3.12v4h-7.6l-1.51-7.1h-4.72a3.84,3.84,0,0,1-4-4V76.48a3.83,3.83,0,0,1,4-4h16a3.83,3.83,0,0,1,4,4v24.09a3.84,3.84,0,0,1-4,4Zm-5.82-24v16h4v-16Z"/><path class="cls-1" d="M67,97c-.07-3.48,1.5-7.43,4.21-11.22h-8V96.54h-4v-16H71.41L73,76.48v-4H53.18a3.83,3.83,0,0,0-4,4v24.09a3.84,3.84,0,0,0,4,4H70.77A9.25,9.25,0,0,1,67,97Z"/><path class="cls-1" d="M114.54,96.54v-24h-8.62a8.64,8.64,0,0,1,2.31,2.36,10.85,10.85,0,0,1,1.11,8.55,24,24,0,0,1-4.78,9.17v12h20.06v-8Z"/><path class="cls-2" d="M106.56,76c-3.18-4.93-12.31-4.68-21.09,0C76.36,80.86,68.83,89.86,69,97c.17,8.61,11.07,10.67,23.7,3.19C104.7,93,110.36,81.83,106.56,76Z"/><path class="cls-1" d="M90.4,74.7s7.47-3.39,13.1.24c1,1.06,3.78,2.22,1.44,9.36C105.32,80.21,104.83,72.59,90.4,74.7Z"/><path class="cls-1" d="M92.5,82.61c-1-2-4.43-1.94-8,.15a16.11,16.11,0,0,0-2.11,1.51c.3-.21.61-.41.92-.6,3.52-2.09,7-2.13,7.89-.09.87,1.88-.57,5.06-3.51,7.63C91.54,88.55,93.54,84.73,92.5,82.61Z"/></g></svg>