<svg xmlns="http://www.w3.org/2000/svg" xmlns:xlink="http://www.w3.org/1999/xlink" viewBox="0 0 252 144"><defs><style>.cls-1{fill:none;}.cls-2{clip-path:url(#clip-path);}.cls-3{fill:url(#linear-gradient);}.cls-4{clip-path:url(#clip-path-2);}.cls-5{fill:url(#linear-gradient-2);}.cls-6{clip-path:url(#clip-path-3);}.cls-7{fill:url(#linear-gradient-3);}.cls-8{clip-path:url(#clip-path-4);}.cls-9{fill:url(#linear-gradient-4);}.cls-10{clip-path:url(#clip-path-5);}.cls-11{fill:url(#linear-gradient-5);}.cls-12{clip-path:url(#clip-path-6);}.cls-13{fill:url(#linear-gradient-6);}.cls-14{clip-path:url(#clip-path-7);}.cls-15{fill:url(#linear-gradient-7);}.cls-16{clip-path:url(#clip-path-8);}.cls-17{fill:url(#linear-gradient-8);}.cls-18{clip-path:url(#clip-path-9);}.cls-19{fill:url(#linear-gradient-9);}.cls-20{clip-path:url(#clip-path-10);}.cls-21{fill:url(#linear-gradient-10);}.cls-22{clip-path:url(#clip-path-11);}.cls-23{fill:url(#linear-gradient-11);}.cls-24{clip-path:url(#clip-path-12);}.cls-25{fill:url(#linear-gradient-12);}.cls-26{clip-path:url(#clip-path-13);}.cls-27{fill:url(#linear-gradient-13);}.cls-28{clip-path:url(#clip-path-14);}.cls-29{fill:url(#linear-gradient-14);}.cls-30{clip-path:url(#clip-path-15);}.cls-31{fill:url(#linear-gradient-15);}.cls-32{fill:#808285;}</style><clipPath id="clip-path"><path class="cls-1" d="M52.92,57.31l3.13-.4V76c0,1,0,1.43-.8,1.6l-2.33.49Zm0-22.81,2-.08c.8,0,.8.5.8,1.49V46.47c0,1,0,1.44-.8,1.51l-2,.19Zm6.75-9.87H44.27V90.18L58.56,86.6c3.44-.95,5.16-4.84,5.16-8.66V56.62c0-3.38-.56-4.88-2-5.78a11.36,11.36,0,0,0,1.6-6.16V30.36c0-3.56-.74-5.47-3.62-5.73Z"/></clipPath><linearGradient id="linear-gradient" x1="-42.91" y1="304.97" x2="-42.57" y2="304.97" gradientTransform="matrix(522.92, 0, 0, -522.92, 22478.21, 159532.78)" gradientUnits="userSpaceOnUse"><stop offset="0" stop-color="#97caeb"/><stop offset="0.04" stop-color="#85c4e8"/><stop offset="0.22" stop-color="#3eaadd"/><stop offset="0.36" stop-color="#119ad6"/><stop offset="0.42" stop-color="#0094d3"/><stop offset="0.56" stop-color="#007abe"/><stop offset="0.73" stop-color="#0060a9"/><stop offset="0.88" stop-color="#00509c"/><stop offset="1" stop-color="#004a98"/></linearGradient><clipPath id="clip-path-2"><polygon class="cls-1" points="65.5 24.63 65.5 84.87 80.77 81.05 82.25 71.87 74.15 73.58 74.15 24.63 65.5 24.63"/></clipPath><linearGradient id="linear-gradient-2" x1="-42.91" y1="304.98" x2="-42.57" y2="304.98" xlink:href="#linear-gradient"/><clipPath id="clip-path-3"><path class="cls-1" d="M95.5,24.63V68.17c0,.61-.12.93-.8,1.08l-1.47.31c-.8.17-.86-.2-.86-1V24.63H83.84V73.52c0,3.5,1.72,6.25,5.16,5.47l9.87-2.47c3.44-.93,5.16-4.25,5.16-7.43V24.63Z"/></clipPath><linearGradient id="linear-gradient-3" x1="-42.91" y1="304.98" x2="-42.57" y2="304.98" xlink:href="#linear-gradient"/><clipPath id="clip-path-4"><polygon class="cls-1" points="106.05 24.63 106.05 74.73 121.33 70.91 122.74 63.4 114.7 65.1 114.7 46.54 117.89 46.18 119.06 39.55 114.7 39.9 114.7 32.16 121.27 31.9 122.86 24.63 106.05 24.63"/></clipPath><linearGradient id="linear-gradient-4" x1="-42.9" y1="304.99" x2="-42.56" y2="304.99" gradientTransform="matrix(522.92, 0, 0, -522.92, 22468.21, 159535.78)" xlink:href="#linear-gradient"/><clipPath id="clip-path-5"><path class="cls-1" d="M133,47l3.13-.4v13c0,.67,0,1-.8,1.14l-2.33.49Zm0-15.61,2-.08c.8,0,.8.33.8,1v7.2c0,.67,0,1-.8,1l-2,.18Zm6.75-6.75h-15.4V70.16l14.29-3.58a6.55,6.55,0,0,0,5.16-6.22V46.06c0-2.26-.56-3.25-2-3.79a6.05,6.05,0,0,0,1.6-4.19V28.47c0-2.39-.74-3.67-3.62-3.84Z"/></clipPath><linearGradient id="linear-gradient-5" x1="-42.9" y1="305" x2="-42.56" y2="305" gradientTransform="matrix(522.92, 0, 0, -522.92, 22468.21, 159535.78)" xlink:href="#linear-gradient"/><clipPath id="clip-path-6"><polygon class="cls-1" points="146.61 24.63 146.61 64.59 161.89 60.77 163.3 54.84 155.26 56.54 155.26 41.91 158.45 41.54 159.62 36.32 155.26 36.67 155.26 30.57 161.83 30.31 163.42 24.63 146.61 24.63"/></clipPath><linearGradient id="linear-gradient-6" x1="-42.91" y1="305" x2="-42.57" y2="305" xlink:href="#linear-gradient"/><clipPath id="clip-path-7"><path class="cls-1" d="M176.74,38.8l2.2,10.46-4.35.85Zm0-14.17H173l-8.22,35.42L173.05,58l.56-2.42,6.25-1.46.5,2,8.4-2.1-8.28-29.42Z"/></clipPath><linearGradient id="linear-gradient-7" x1="-42.91" y1="305" x2="-42.57" y2="305" xlink:href="#linear-gradient"/><clipPath id="clip-path-8"><path class="cls-1" d="M199,28.85l2.64-.11c.55,0,.79.12.79.57v6c0,.26-.12.5-.79.57l-2.64.29Zm-8.65-4.22v29L199,51.49v-11l4.17,10,7.85-2-4.23-9.69c2.15-.72,3.31-2,3.31-3.22V26.93c0-1.48-.79-2.2-3.68-2.3Z"/></clipPath><linearGradient id="linear-gradient-8" x1="-42.91" y1="305.01" x2="-42.57" y2="305.01" xlink:href="#linear-gradient"/><clipPath id="clip-path-9"><polygon class="cls-1" points="65.8 88.72 59.68 95.09 53.56 91.79 44.71 94.02 44.71 118.44 55.03 118.44 55.03 98.95 55.47 99.18 59.68 101.61 63.88 97.68 64.25 97.28 64.25 118.44 74.65 118.44 74.65 86.49 65.8 88.72"/></clipPath><linearGradient id="linear-gradient-9" x1="-42.91" y1="305.1" x2="-42.57" y2="305.1" gradientTransform="matrix(532.29, 0, 0, -532.29, 22879.25, 162502.57)" gradientUnits="userSpaceOnUse"><stop offset="0" stop-color="#9b9b98"/><stop offset="0.03" stop-color="#9b9b98"/><stop offset="0.13" stop-color="#a4a5a7"/><stop offset="0.22" stop-color="#aeb0b7"/><stop offset="0.49" stop-color="#90969c"/><stop offset="0.82" stop-color="#717a81"/><stop offset="1" stop-color="#657076"/></linearGradient><clipPath id="clip-path-10"><path class="cls-1" d="M119.78,75.16V110.9c0,.49-.15.75-1,.78l-1.77.07c-1,0-1-.26-1-.93V76.1l-10.25,2.58v34.94c0,2.5,2.06,4.77,6.19,4.82h11.88c4.13-.06,6.19-2.68,6.19-5.56V72.58Z"/></clipPath><linearGradient id="linear-gradient-10" x1="-42.91" y1="305.11" x2="-42.57" y2="305.11" xlink:href="#linear-gradient-9"/><clipPath id="clip-path-11"><polygon class="cls-1" points="148.76 67.88 148.84 78.12 142.35 69.49 132.39 71.99 132.39 118.44 142.79 118.44 142.79 85.29 148.84 93.95 148.76 118.44 159.16 118.44 159.16 65.27 148.76 67.88"/></clipPath><linearGradient id="linear-gradient-11" x1="-42.91" y1="305.12" x2="-42.57" y2="305.12" xlink:href="#linear-gradient-9"/><clipPath id="clip-path-12"><polygon class="cls-1" points="179.74 60.1 179.66 60.12 169.49 62.67 169.41 62.69 161.45 64.69 161.45 73.14 169.41 71.45 169.41 118.44 179.74 118.44 179.74 69.27 187.7 67.58 187.7 58.1 179.74 60.1"/></clipPath><linearGradient id="linear-gradient-12" x1="-42.91" y1="305.12" x2="-42.57" y2="305.12" xlink:href="#linear-gradient-9"/><clipPath id="clip-path-13"><path class="cls-1" d="M197.81,55.56c-3,.76-8.19,3.44-8.19,11.18v2.78c0,8.08,6.64,17,10,27.57,1.32,4.35,2.5,10.39,0,11.22a1.85,1.85,0,0,1-.82.12l-6.26.25-1.77,9.76h12.09c6.56,0,7.52-6.79,7.74-10.66v-2.27c0-10.76-5.23-20-8.48-27.91-3.24-6.79-4.49-12-.66-12.83l5.68-1.2,2.06-10.86Z"/></clipPath><linearGradient id="linear-gradient-13" x1="-42.91" y1="305.13" x2="-42.57" y2="305.13" xlink:href="#linear-gradient-9"/><clipPath id="clip-path-14"><path class="cls-1" d="M96.3,81.23,84.06,84.3c-4,1-6.19,3.48-6.19,5.49v1.66l24.63-3.19V84.35c0-1.92-1.37-3.42-4-3.42a8.81,8.81,0,0,0-2.2.3"/></clipPath><linearGradient id="linear-gradient-14" x1="-42.91" y1="305.13" x2="-42.57" y2="305.13" gradientTransform="matrix(532.29, 0, 0, -532.29, 22878.96, 162503.15)" xlink:href="#linear-gradient-9"/><clipPath id="clip-path-15"><path class="cls-1" d="M77.87,93.43v21.23c0,2.06,2.06,3.94,6.19,4H96.3c4.13,0,6.2-2.28,6.2-4.73V92Z"/></clipPath><linearGradient id="linear-gradient-15" x1="-42.91" y1="305.09" x2="-42.57" y2="305.09" gradientTransform="matrix(532.29, 0, 0, -532.29, 22878.96, 162503.15)" xlink:href="#linear-gradient-9"/></defs><title>Artboard 13</title><g id="Layer_1" data-name="Layer 1"><g class="cls-2"><rect class="cls-3" x="44.27" y="24.63" width="19.45" height="65.55"/></g><g class="cls-4"><rect class="cls-5" x="65.49" y="24.63" width="16.75" height="60.24"/></g><g class="cls-6"><rect class="cls-7" x="83.84" y="24.63" width="20.19" height="55.15"/></g><g class="cls-8"><rect class="cls-9" x="106.05" y="24.63" width="16.81" height="50.1"/></g><g class="cls-10"><rect class="cls-11" x="124.34" y="24.63" width="19.45" height="45.53"/></g><g class="cls-12"><rect class="cls-13" x="146.61" y="24.63" width="16.81" height="39.96"/></g><g class="cls-14"><rect class="cls-15" x="164.77" y="24.63" width="23.99" height="35.42"/></g><g class="cls-16"><rect class="cls-17" x="190.36" y="24.63" width="20.68" height="29.03"/></g><g class="cls-18"><rect class="cls-19" x="44.71" y="86.49" width="29.94" height="31.95"/></g><g class="cls-20"><rect class="cls-21" x="105.77" y="72.58" width="24.26" height="45.86"/></g><g class="cls-22"><rect class="cls-23" x="132.39" y="65.26" width="26.77" height="53.18"/></g><g class="cls-24"><rect class="cls-25" x="161.45" y="58.1" width="26.25" height="60.35"/></g><g class="cls-26"><rect class="cls-27" x="189.62" y="52.71" width="20.94" height="65.74"/></g><g class="cls-28"><rect class="cls-29" x="77.87" y="80.93" width="24.63" height="10.52"/></g><g class="cls-30"><rect class="cls-31" x="77.87" y="91.95" width="24.63" height="26.7"/></g><polygon class="cls-32" points="85.97 92.92 94.49 92.46 94.49 89.3 85.97 90.44 85.97 92.92"/><polygon class="cls-32" points="85.97 90.44 85.97 92.92 94.49 92.46 94.49 89.3 85.97 90.44"/></g></svg>