<svg xmlns="http://www.w3.org/2000/svg" viewBox="0 0 252 144"><defs><style>.cls-1{opacity:0.12;}.cls-2{fill:#231f20;}.cls-11,.cls-3{fill:#fff;}.cls-4{fill:#6ec9de;}.cls-5{fill:#0d8eae;stroke-width:0.17px;}.cls-11,.cls-5{stroke:#6ec9de;}.cls-6{fill:#ba9e65;}.cls-7{fill:#966348;}.cls-8{fill:#ffc433;}.cls-9{fill:#ffd54b;}.cls-10{fill:#464044;}.cls-11{stroke-linecap:round;stroke-linejoin:round;stroke-width:0.51px;}.cls-11,.cls-18{opacity:0.75;}.cls-12{fill:#b2e0e3;}.cls-13{fill:#c5e5e9;}.cls-14{fill:#f2f0f4;}.cls-15{fill:#f89822;}.cls-15,.cls-16{opacity:0.9;}.cls-16{fill:#e02828;}.cls-17{fill:#b72428;opacity:0.5;}.cls-19{fill:#c2944c;}.cls-20{fill:#d92328;}.cls-21{fill:#c12628;}.cls-22{fill:#217098;}</style></defs><title>Artboard 14</title><g id="Layer_5" data-name="Layer 5"><g class="cls-1"><path class="cls-2" d="M13.54,77.83a8.88,8.88,0,0,0,.36,1.52,5.86,5.86,0,0,0,1.46,2.37,5.65,5.65,0,0,0,3,1.53,5.49,5.49,0,0,0,1.08.1h0A8,8,0,0,0,22,82.88,13.89,13.89,0,0,0,28,79a11.28,11.28,0,0,0,1.54.11c.4,0,.81,0,1.21-.06a11.6,11.6,0,0,0,2.86-.69,7.88,7.88,0,0,0,2.71-1.68,3.25,3.25,0,0,0,.63-.84l.11.07a6.79,6.79,0,0,0,3.38.88h0a9.83,9.83,0,0,0,2.8-.41A10.24,10.24,0,0,0,45.7,75.3a9.2,9.2,0,0,0,1.92-1.48l.3-.28a7.11,7.11,0,0,0,.82.44,6.78,6.78,0,0,0,2.79.59,9,9,0,0,0,1-.07,11,11,0,0,0,2.94-.82,9.13,9.13,0,0,0,2.63-1.78,8.33,8.33,0,0,0,1-1.15,6,6,0,0,0,1.45.93,7,7,0,0,0,2.95.63,7.57,7.57,0,0,0,.81,0,11.44,11.44,0,0,0,3-.72A9.06,9.06,0,0,0,70,69.84a10.53,10.53,0,0,0,2.28-3.2,12.92,12.92,0,0,0,1.53-2.56,1.17,1.17,0,0,0,0-.11c0-.12.11-.28.4-1.09A13.08,13.08,0,0,0,74.86,60a17.49,17.49,0,0,0,0-3.77,15.15,15.15,0,0,0-.65-3.14,8,8,0,0,0,.57-1.67A13.13,13.13,0,0,0,75,49.91v0a9.53,9.53,0,0,0,0-1.69v-.06A7.6,7.6,0,0,0,74,45,6.5,6.5,0,0,0,72,42.87a6.38,6.38,0,0,0-2.68-.95,9.11,9.11,0,0,0-1.05-.06A8.86,8.86,0,0,0,67,42a7.19,7.19,0,0,0-3.89,1.89,9.81,9.81,0,0,0-1.41,1.65,5.8,5.8,0,0,0-1.09-.9,6.25,6.25,0,0,0-2.74-.93c-.27,0-.54,0-.81,0a8.46,8.46,0,0,0-1.5.14,7.33,7.33,0,0,0-3.83,2,10.51,10.51,0,0,0-2,2.73A5.74,5.74,0,0,0,46,47.07h-.15a7.75,7.75,0,0,0-4.06,1.22,13.37,13.37,0,0,0-3.3,3,17.21,17.21,0,0,0-1.82,2.81h0c0-.16,0-.31.07-.47.19-1.29.36-2.56.51-3.77s.28-2.29.38-3.21a3.41,3.41,0,0,0-1.13-2.94,3.45,3.45,0,0,0-2.26-.85,3.57,3.57,0,0,0-.8.09c-2.23.54-4.48,1.11-6.69,1.7a3.39,3.39,0,0,0-2.49,2.73,3.38,3.38,0,0,0-1.37,2.3c-.16,1.19-.33,2.57-.51,4.12s-.38,3.06-.62,4.67-.54,3.27-.87,4.9c0,.2-.08.4-.13.6a7.21,7.21,0,0,0-1.2.68l-.07,0A10.78,10.78,0,0,0,16,68.86a11.8,11.8,0,0,0-1.6,2.75,12.73,12.73,0,0,0-.92,6A1.1,1.1,0,0,0,13.54,77.83Z"/><path class="cls-2" d="M91.7,92.7l-1.26-1a9.25,9.25,0,0,0,1.1-3,.36.36,0,0,0,0-.1,11.36,11.36,0,0,0-.56-5.7,8.3,8.3,0,0,0-2-3,.94.94,0,0,1-.1-.1A6.85,6.85,0,0,0,84.56,78H84.2a8.54,8.54,0,0,0-4,1,12.08,12.08,0,0,0-3.51,2.85l0,0a2.54,2.54,0,0,0-.35-.46,3.36,3.36,0,0,0-2.55-1.16,4,4,0,0,0-.6,0l-3.37.61a6.7,6.7,0,0,0-.6-.45,5.51,5.51,0,0,0-3-.92,5.74,5.74,0,0,0-1.09.1A6.29,6.29,0,0,0,62.29,81,8.24,8.24,0,0,0,60.51,83q-.24.39-.45.81A6.9,6.9,0,0,0,57,83.12a7.85,7.85,0,0,0-1,.06l-.08,0A10.42,10.42,0,0,0,51.41,85a15.09,15.09,0,0,0-1.68,1.42,10.89,10.89,0,0,0-.94,1.05,12.9,12.9,0,0,0-.16-1.94,8.59,8.59,0,0,0-.91-2.7,7,7,0,0,0-1.57-1.94,6.48,6.48,0,0,0-4.28-1.53,8.24,8.24,0,0,0-.85,0l-.22,0a9.92,9.92,0,0,0-5,2.45l-.65.64a5.54,5.54,0,0,0-1-.38A6.36,6.36,0,0,0,32.37,82a7.4,7.4,0,0,0-1.23.11l-.08,0a10.19,10.19,0,0,0-2.77,1,12.4,12.4,0,0,0-1.4.91,3.53,3.53,0,0,0-.72-.08,3.35,3.35,0,0,0-1,.15c-2.71.82-5.44,1.68-8.12,2.56a3.39,3.39,0,0,0-2.28,2.56l0,.12a3.45,3.45,0,0,0-1.33,2.08c-.16.79-.33,1.66-.5,2.59s-.35,1.81-.53,2.89-.37,2.28-.56,3.51c-.35,2.28-.67,4.62-.95,7-.23,2-.44,4.28-.62,6.64s-.26,4.85-.22,7.1a3.41,3.41,0,0,0,3.42,3.35,3.5,3.5,0,0,0,1.18-.21c2.75-1,5.56-2,8.35-3a3.24,3.24,0,0,0,.94-.49A3.73,3.73,0,0,0,25,120.6c2.82-.94,5.68-1.86,8.52-2.74a3.4,3.4,0,0,0,2.17-2l.41.15a7,7,0,0,0,2.17.33A9.92,9.92,0,0,0,41,115.9l.07,0a10.51,10.51,0,0,0,4.42-2.76,13.32,13.32,0,0,0,1.53-1.91l0,0a7.15,7.15,0,0,0,1.18.79,6.83,6.83,0,0,0,2.49.81,8.18,8.18,0,0,0,1.23.09,10.85,10.85,0,0,0,1.58-.13,11.26,11.26,0,0,0,2.91-.88,10.74,10.74,0,0,0,2.93-2l0,0a12,12,0,0,0,2.35-3.17c.06-.11.11-.22.16-.33a12,12,0,0,0,1.17-1.82,7.73,7.73,0,0,0,1,1.61,6.79,6.79,0,0,0,5.42,2.58,8.41,8.41,0,0,0,1.3-.1,8,8,0,0,0,2.77-.88,10.21,10.21,0,0,0,2-1.36,8.83,8.83,0,0,0,.88-.85c.2.12.41.22.62.32a8.24,8.24,0,0,0,3.36.79h.26a11.19,11.19,0,0,0,2.66-.31,11.7,11.7,0,0,0,2.57-.93,9.14,9.14,0,0,0,2-1.4,9.54,9.54,0,0,0,1.58-1.66,13.67,13.67,0,0,0,1.1-1.67l0,0c.08-.16.17-.32.24-.48A12.83,12.83,0,0,0,92,98.47l0,0a15.57,15.57,0,0,0,.81-1.78A3.4,3.4,0,0,0,91.7,92.7Z"/><path class="cls-2" d="M239.66,98.53a58.29,58.29,0,0,0-8-2.69l0-.07c-1.73-3.16-2.09-8.42-2-12.27,5.43-.51,9.07-3.16,10.82-7.89,2.59-7,.12-15.45-3.51-19.89-1.5-1.85-2.19-3.24-2.1-4.24a11.39,11.39,0,0,1,2.94-6l0,0c.84-.9,1.69-1.83,2.52-2.75a3.36,3.36,0,0,0,.71-1.24l.24-.26.65-.78a3.42,3.42,0,0,0,.48-3.58,20.39,20.39,0,0,0-2.17-3.73,3.41,3.41,0,0,0,.28-5.57l-.75-.59a3.38,3.38,0,0,0-2.1-.72,3.45,3.45,0,0,0-1.34.27A16.75,16.75,0,0,0,233.57,28a11.86,11.86,0,0,0-3.92-.66,14.21,14.21,0,0,0-9.46,3.9l-.2.19-.05,0a3.42,3.42,0,0,0-1,3.5l.27.92a3.43,3.43,0,0,0,1.31,1.83q.32.93.63,1.89l-3.56.57q-1.06-2.07-2.15-4.13l-.07-.14a5.63,5.63,0,0,0-4.94-3.06,6.42,6.42,0,0,0-2.86.71c-3.37,1.65-6.83,3.25-10.28,4.76a3.42,3.42,0,0,0-1.94,3.93l.31,1.3a3.39,3.39,0,0,0,1.78,2.26,3.37,3.37,0,0,0,2.88.09q2.53-1.08,5.07-2.22a3.29,3.29,0,0,0-.23.69A3.42,3.42,0,0,0,206.65,48L209,49.52l.33.2a6.31,6.31,0,0,1,2.85,3.65c.1.54-.28,1.74-1.69,3.51-3.12,4-5.25,10.45-3.41,16.31a10.4,10.4,0,0,0-1.05-.73,8.91,8.91,0,0,0-3.62-1.16h-.65a9.94,9.94,0,0,0-1.59.13,6.52,6.52,0,0,0-1,.25,3.29,3.29,0,0,0-1.21-.23h0c-1.83,0-3.67,0-5.5,0a7.37,7.37,0,0,0-.33-2.67A8.77,8.77,0,0,0,191,66.42a9.22,9.22,0,0,0-1.65-1.87,8.25,8.25,0,0,0-2.11-1.36,6.76,6.76,0,0,0-2.7-.62h-.08a5.89,5.89,0,0,0-.95.08,8.28,8.28,0,0,0,1.14-1.7,4.9,4.9,0,0,0,.24-.52A8.7,8.7,0,0,0,186,58.76a10,10,0,0,0,.94-3.21,3.41,3.41,0,0,0-1.08-2.95L184.18,51a3.42,3.42,0,0,0-2.32-.91,3.47,3.47,0,0,0-1.1.18,4.25,4.25,0,0,0-.49.21c0-.28,0-.58,0-.88a2.09,2.09,0,0,0,0-.25,12.79,12.79,0,0,0-.44-2.54,10.26,10.26,0,0,0-.81-2.07A8.26,8.26,0,0,0,177.75,43a9.19,9.19,0,0,0-1.27-1.16,7.94,7.94,0,0,0-3.55-1.5,1.46,1.46,0,0,0-.22,0c-.32,0-.63-.05-.93-.05a7.15,7.15,0,0,0-1.15.09,5.29,5.29,0,0,0-.79.17,3.33,3.33,0,0,0-1.14-.26l-5-.22c0-.11,0-.23,0-.35a8.35,8.35,0,0,0-.24-2.68,9.89,9.89,0,0,0-.95-2.43,10.29,10.29,0,0,0-1.47-2,8.55,8.55,0,0,0-2-1.57,6.28,6.28,0,0,0-2.74-.81H156a5.32,5.32,0,0,0-2.82.8,5.55,5.55,0,0,0-1.95,2.15,7.32,7.32,0,0,0-.35.81,5.49,5.49,0,0,0-1,1.39,6.76,6.76,0,0,0-.73,2.53,7.93,7.93,0,0,0,0,1.46,6.86,6.86,0,0,0-2.15-.54c-.3,0-.6,0-.88,0h-.56c0-1.31,0-2.61,0-3.86a3.36,3.36,0,0,0-.92-2.47,3.43,3.43,0,0,0-2.4-1.09c-1.93,0-3.9-.09-5.85-.12h-.06a3.41,3.41,0,0,0-3.36,2.85,3.36,3.36,0,0,0-1.38,2.36c-.11.92-.17,2-.19,3.14a6.64,6.64,0,0,0-1.27-.25l-.25,0h-.38a8.27,8.27,0,0,0-1.76.18,6.61,6.61,0,0,0-.76.22A3.44,3.44,0,0,0,126,39.5h0l-4.41.08a.3.3,0,0,0,0-.1,9.18,9.18,0,0,0,.07-2.73,9.53,9.53,0,0,0-.69-2.59,9.15,9.15,0,0,0-1.33-2.2,7.07,7.07,0,0,0-2-1.71,5.66,5.66,0,0,0-2.84-.77h-.11a5.46,5.46,0,0,0-3,1,6.48,6.48,0,0,0-1.86,2.06,8,8,0,0,0-.46,1,6.74,6.74,0,0,0-.89,1.21,7.87,7.87,0,0,0-.89,2.45,8.92,8.92,0,0,0-.11,2.69,10.62,10.62,0,0,0,.28,1.53A6.84,6.84,0,0,0,104,40l-.28,0c0-.28.11-.58.17-.87.19-1,.43-2,.71-3a3.4,3.4,0,0,0-3.3-4.29h-.17c-1.93.1-3.89.21-5.82.33a3.45,3.45,0,0,0-1.78.64l-.36-.11a3.32,3.32,0,0,0-.83-.11,3.42,3.42,0,0,0-2.27.86l-.19.07-.11,0a4,4,0,0,1-.44.11c-2.23.17-4.47.37-6.67.57a8.35,8.35,0,0,0-2.88.79A10.2,10.2,0,0,0,78,36.1a8.8,8.8,0,0,0-1.63,1.71A3.67,3.67,0,0,0,75.79,39a8.14,8.14,0,0,0-.8,1,3.46,3.46,0,0,0-.52,2.88l1.2,4.38a3.41,3.41,0,0,0,1.71,2.11c0,.34-.09.68-.14,1a55,55,0,0,0-.42,7.8A19.1,19.1,0,0,0,77.21,62a12.74,12.74,0,0,0,1.06,3,8.54,8.54,0,0,0,1.79,2.36,8.3,8.3,0,0,0,2,1.39,8.15,8.15,0,0,0,3.51.77,9.87,9.87,0,0,0,1.9-.19,7.38,7.38,0,0,0,2.84-1.25l.07,0A8.29,8.29,0,0,0,91.57,67a3.41,3.41,0,0,0,1.8.52l.35,0c1.91-.2,3.87-.38,5.84-.56a3.35,3.35,0,0,0,1.77-.7h0a7.25,7.25,0,0,0,3.06.63l.74,0c.31,0,.74-.07,1.4-.15a8.39,8.39,0,0,0,3.13-1.07,8,8,0,0,0,.89-.58,8,8,0,0,0,3.3,1.15,10.7,10.7,0,0,0,1.36.09,8.8,8.8,0,0,0,1.72-.16,9.42,9.42,0,0,0,2.32-.75,3.6,3.6,0,0,0,1.31.26h.17c1.92-.1,3.9-.19,5.88-.27a3.41,3.41,0,0,0,1.81-.61l.16.08a8,8,0,0,0,3.36.69h.33l.62,0a9,9,0,0,0,1.68-.23l.47-.12a6,6,0,0,0-.66.89,6.82,6.82,0,0,0-.54,1.12,5.68,5.68,0,0,0-.81,1.07,7.34,7.34,0,0,0-.94,2.52,8.39,8.39,0,0,0,0,2.65l-3.72.26a7.53,7.53,0,0,0-.92-.68,6.19,6.19,0,0,0-3.29-.95h-.47a5.65,5.65,0,0,0-1.48.31c-.12-.22-.24-.43-.37-.63a9.73,9.73,0,0,0-2.3-2.56,7.51,7.51,0,0,0-4.65-1.6l-.71,0-.68.08a3.44,3.44,0,0,0-2-.67h-.29c-2.49.21-5,.45-7.52.7a3.41,3.41,0,0,0-3,2.83,3.4,3.4,0,0,0-1.4,2.91c0,1.12.09,2.48.12,4.06s0,3.26,0,5S99.11,86,99,87.71l-.16.06a6.11,6.11,0,0,0-3.1,2.63,7.35,7.35,0,0,0-.48,1,5.61,5.61,0,0,0-.88,1.17,6.94,6.94,0,0,0-.88,2.8.15.15,0,0,0,0,.07,9,9,0,0,0,.3,2.88s0,.09,0,.14a6.85,6.85,0,0,0,1.71,2.82A7.86,7.86,0,0,0,98,103a7.45,7.45,0,0,0,3,.57,10.23,10.23,0,0,0,1.09-.06l.16,0a13.17,13.17,0,0,0,3.83-1.19,10.74,10.74,0,0,0,1.57-.92l.64.23a11.55,11.55,0,0,0,2.3.55,9.1,9.1,0,0,0,1.39.1,10.62,10.62,0,0,0,1.37-.09,9.89,9.89,0,0,0,5.78-2.9,9.9,9.9,0,0,0,1.95-2.86A11.2,11.2,0,0,0,122,95a3.5,3.5,0,0,0,1,.15h.28a8.55,8.55,0,0,0,1.47,2,8.24,8.24,0,0,0,2.74,1.83,8.43,8.43,0,0,0,3.19.59h.48a8,8,0,0,0,2.77-.56,8.93,8.93,0,0,0,2-1.13l.29-.21a8.85,8.85,0,0,0,3.53,1l1,0a10.5,10.5,0,0,0,2.14-.21,10.83,10.83,0,0,0,2.54-.85l.06,0a3.39,3.39,0,0,0,1.3.26h.29c2.13-.17,4.26-.34,6.33-.49a3.43,3.43,0,0,0,1.9-.76l.5.2a8.68,8.68,0,0,0,2.94.49l.77,0,.67-.05a9.3,9.3,0,0,0,1.67-.27,10.37,10.37,0,0,0,2-.7l.16-.07a3.47,3.47,0,0,0,1.43.31h.22c2.25-.15,4.54-.29,6.81-.42a3.36,3.36,0,0,0,1.61-.51,8.51,8.51,0,0,0,1,.3,9.11,9.11,0,0,0,2.21.26l.63,0c.38,0,.89-.08,1.6-.17a9.64,9.64,0,0,0,2.9-.92,8,8,0,0,0,1.16-.68,9.88,9.88,0,0,0,3.82,1.16c.46,0,.91.06,1.34.06a11,11,0,0,0,1.66-.12,10.12,10.12,0,0,0,2.48-.69l.11-.05a3.36,3.36,0,0,0,1.4.3h.16l6.26-.27a3.46,3.46,0,0,0,1.87-.65c.22.1.44.18.67.26l.17,0a3.73,3.73,0,0,0-.71,1.83c-.4,3.37,3.18,5,7.22,6.53a112.52,112.52,0,0,0,13,3.83,72.28,72.28,0,0,0,15.15,2.22h0a13.25,13.25,0,0,0,3.55-.39,4.29,4.29,0,0,0,3.43-4C245.19,101.35,242.4,99.73,239.66,98.53ZM159.79,67a3.38,3.38,0,0,0-1.38,2.4,26.46,26.46,0,0,0-.13,2.95,7.72,7.72,0,0,0-1.81-.33h-.27a9.76,9.76,0,0,0-2.08.22,6.38,6.38,0,0,0-1,.29,3.38,3.38,0,0,0-1.1-.18h-.14l-5.08.23a8.34,8.34,0,0,0,0-2.68,8.72,8.72,0,0,0-.88-2.59,8.55,8.55,0,0,0-1.54-2.11c-.12-.13-.26-.25-.39-.37h.33a3.43,3.43,0,0,0,1.55-.4c.22.1.45.19.68.27a8.54,8.54,0,0,0,2.73.43h.1c.38,0,.87,0,1.56-.1a8.44,8.44,0,0,0,2.93-.9,7,7,0,0,0,.84-.48,8.94,8.94,0,0,0,3.42,1.31,11,11,0,0,0,1.93.18c.26,0,.52,0,.77,0A3.42,3.42,0,0,0,159.79,67Zm19.74-1.61a6.14,6.14,0,0,0-.46,1,5.8,5.8,0,0,0-.89,1.18,6.38,6.38,0,0,0-.8,2.6,7.39,7.39,0,0,0,0,1.41,7.42,7.42,0,0,0-2.77-.65h-.51a9.87,9.87,0,0,0-1.22.07c0-1.16-.05-2.3,0-3.41a3.43,3.43,0,0,0-1-2.47c-.11-.11-.23-.21-.35-.31a3.28,3.28,0,0,0,1-.41l.36.17a8.9,8.9,0,0,0,3.52.77h.77a8.9,8.9,0,0,0,1.48-.13,9.27,9.27,0,0,0,1.08-.25C179.71,65.11,179.62,65.24,179.53,65.39Z"/></g><path class="cls-3" d="M14.67,75.64A9.1,9.1,0,0,0,15,77.16a5.82,5.82,0,0,0,1.46,2.36,5.67,5.67,0,0,0,3,1.54,6.38,6.38,0,0,0,1.08.1h0a8.28,8.28,0,0,0,2.59-.47,13.53,13.53,0,0,0,3.93-2,13.77,13.77,0,0,0,2.06-1.87,11.27,11.27,0,0,0,1.54.1c.4,0,.81,0,1.21-.06a11.15,11.15,0,0,0,2.86-.68,8,8,0,0,0,2.71-1.68,3.42,3.42,0,0,0,.63-.84l.11.06a6.78,6.78,0,0,0,3.37.88h0a9.82,9.82,0,0,0,2.8-.4,11.12,11.12,0,0,0,2.44-1.06,9.23,9.23,0,0,0,1.92-1.49l.3-.28a5.9,5.9,0,0,0,.82.45,6.94,6.94,0,0,0,2.79.58,7.19,7.19,0,0,0,1-.07,11.34,11.34,0,0,0,2.94-.81,9.7,9.7,0,0,0,2.63-1.78,9,9,0,0,0,1-1.15,5.94,5.94,0,0,0,1.45.92,7,7,0,0,0,3,.64,7.65,7.65,0,0,0,.81-.05,10.69,10.69,0,0,0,3-.72,9,9,0,0,0,2.67-1.71,10.47,10.47,0,0,0,2.28-3.19,13.22,13.22,0,0,0,1.53-2.56l0-.12c0-.11.11-.27.4-1.08A13.21,13.21,0,0,0,76,57.83a17.5,17.5,0,0,0,0-3.77,15.24,15.24,0,0,0-.65-3.15,8,8,0,0,0,.57-1.66,13.48,13.48,0,0,0,.25-1.53v0a9.54,9.54,0,0,0,0-1.69v0a7.55,7.55,0,0,0-1-3.15,6.6,6.6,0,0,0-2.06-2.11,6.37,6.37,0,0,0-2.68-.94,7.31,7.31,0,0,0-1-.07,8.86,8.86,0,0,0-1.25.09,7.21,7.21,0,0,0-3.89,1.9,9.74,9.74,0,0,0-1.41,1.64,6.15,6.15,0,0,0-1.09-.89A6.3,6.3,0,0,0,59,41.47a7.32,7.32,0,0,0-.81,0,8.44,8.44,0,0,0-1.5.13,7.48,7.48,0,0,0-3.83,2,10.85,10.85,0,0,0-2.05,2.73,5.84,5.84,0,0,0-3.71-1.41h-.15a7.73,7.73,0,0,0-4.07,1.23,13.26,13.26,0,0,0-3.29,3,17.21,17.21,0,0,0-1.82,2.81h0c0-.16,0-.32.07-.47.19-1.29.36-2.56.51-3.78s.28-2.28.38-3.2a3.42,3.42,0,0,0-3.39-3.8,3.58,3.58,0,0,0-.8.1c-2.23.54-4.48,1.11-6.69,1.69a3.42,3.42,0,0,0-2.49,2.74A3.38,3.38,0,0,0,24,47.49c-.16,1.19-.34,2.57-.51,4.11s-.38,3.07-.62,4.68-.54,3.27-.87,4.9c0,.2-.08.39-.13.59a8,8,0,0,0-1.2.68l-.07,0a10.82,10.82,0,0,0-3.41,4.16,11.8,11.8,0,0,0-1.6,2.75,12.77,12.77,0,0,0-.92,6A1.1,1.1,0,0,0,14.67,75.64Z"/><path class="cls-3" d="M92.83,90.5l-1.26-1a9.25,9.25,0,0,0,1.1-3,.43.43,0,0,0,0-.11,11.37,11.37,0,0,0,.07-3,11.72,11.72,0,0,0-.63-2.67,8.3,8.3,0,0,0-1.95-3l-.1-.1a6.91,6.91,0,0,0-4.39-1.83h-.36a8.54,8.54,0,0,0-4,1,12.29,12.29,0,0,0-3.51,2.86l0,0a3,3,0,0,0-.35-.47A3.39,3.39,0,0,0,74.91,78a3,3,0,0,0-.6,0c-1.11.19-2.24.4-3.37.61a4.27,4.27,0,0,0-.6-.45,5.44,5.44,0,0,0-3-.93,5.76,5.76,0,0,0-1.09.11,6.09,6.09,0,0,0-2.79,1.34,8.07,8.07,0,0,0-1.78,2.06q-.24.39-.45.81a6.9,6.9,0,0,0-3.08-.71,7.85,7.85,0,0,0-1,.06h-.08a10.56,10.56,0,0,0-4.53,1.85,14.09,14.09,0,0,0-1.68,1.42,12.05,12.05,0,0,0-.94,1,11.45,11.45,0,0,0-.17-1.93,8.26,8.26,0,0,0-.9-2.7,7,7,0,0,0-1.57-2A6.53,6.53,0,0,0,43,77.21a8.19,8.19,0,0,0-.85,0l-.22,0a9.76,9.76,0,0,0-5,2.45c-.22.2-.43.41-.65.63a5.5,5.5,0,0,0-1-.37,6.36,6.36,0,0,0-1.74-.24,6.47,6.47,0,0,0-1.23.11h-.08a10.21,10.21,0,0,0-2.77,1,12.31,12.31,0,0,0-1.4.9,3.51,3.51,0,0,0-.72-.07,3.34,3.34,0,0,0-1,.14c-2.71.82-5.44,1.69-8.12,2.57A3.39,3.39,0,0,0,15.91,87l0,.12a3.42,3.42,0,0,0-1.33,2.07c-.16.8-.33,1.66-.5,2.6s-.35,1.8-.53,2.89S13.15,97,13,98.18c-.35,2.27-.67,4.62-1,7-.23,2-.44,4.29-.62,6.65s-.26,4.85-.22,7.1a3.43,3.43,0,0,0,3.42,3.35,3.5,3.5,0,0,0,1.18-.21c2.75-1,5.56-2,8.35-3a3.53,3.53,0,0,0,.94-.5,3.44,3.44,0,0,0,1.05-.17c2.82-.94,5.68-1.86,8.52-2.74a3.42,3.42,0,0,0,2.17-2l.41.14a7,7,0,0,0,2.17.33,10.26,10.26,0,0,0,2.78-.42l.07,0a10.44,10.44,0,0,0,4.42-2.77,13.21,13.21,0,0,0,1.53-1.9l0,0a7.83,7.83,0,0,0,1.18.79,7,7,0,0,0,2.49.81,9.78,9.78,0,0,0,1.23.08,10.81,10.81,0,0,0,1.58-.12,11.66,11.66,0,0,0,2.91-.88,11.22,11.22,0,0,0,2.93-2l0,0a11.88,11.88,0,0,0,2.35-3.18,3.18,3.18,0,0,0,.16-.32,12.82,12.82,0,0,0,1.17-1.82,8,8,0,0,0,1,1.61,6.88,6.88,0,0,0,5.42,2.58,9.86,9.86,0,0,0,1.3-.1,8.17,8.17,0,0,0,2.77-.88,10.67,10.67,0,0,0,2-1.36,10.12,10.12,0,0,0,.88-.85c.2.11.41.22.62.31a8.25,8.25,0,0,0,3.36.8h.26a11.57,11.57,0,0,0,5.23-1.25,8.52,8.52,0,0,0,2-1.4,9.85,9.85,0,0,0,1.58-1.65,13.75,13.75,0,0,0,1.1-1.68l0,0c.08-.16.17-.32.24-.49a13.46,13.46,0,0,0,1.09-1.66l0,0A15.57,15.57,0,0,0,94,94.45,3.4,3.4,0,0,0,92.83,90.5Z"/><path class="cls-3" d="M240.79,96.33a58.29,58.29,0,0,0-8-2.69l0-.06c-1.73-3.16-2.09-8.42-2-12.27,5.43-.51,9.07-3.16,10.82-7.9,2.59-7,.12-15.45-3.51-19.88-1.5-1.85-2.19-3.24-2.1-4.24a11.43,11.43,0,0,1,2.94-6l0,0c.84-.9,1.69-1.83,2.52-2.75a3.4,3.4,0,0,0,.71-1.25l.24-.25.65-.78a3.41,3.41,0,0,0,.47-3.58,19.81,19.81,0,0,0-2.16-3.73,3.41,3.41,0,0,0,.28-5.57l-.75-.59a3.41,3.41,0,0,0-3.44-.46,17.52,17.52,0,0,0-2.78,1.51,12.13,12.13,0,0,0-3.93-.65,14.16,14.16,0,0,0-9.45,3.9l-.2.18-.05.05a3.41,3.41,0,0,0-1,3.49l.27.93a3.37,3.37,0,0,0,1.31,1.82l.63,1.89-3.56.57c-.71-1.38-1.43-2.76-2.15-4.12l-.07-.14a5.63,5.63,0,0,0-4.94-3.07,6.44,6.44,0,0,0-2.86.72c-3.37,1.64-6.83,3.25-10.28,4.76a3.41,3.41,0,0,0-1.94,3.92l.31,1.31a3.41,3.41,0,0,0,1.78,2.26,3.45,3.45,0,0,0,1.54.36,3.49,3.49,0,0,0,1.34-.27q2.53-1.08,5.07-2.22a3.41,3.41,0,0,0-.23.68,3.44,3.44,0,0,0,1.47,3.58l2.35,1.56.33.2a6.31,6.31,0,0,1,2.85,3.65c.1.54-.28,1.74-1.69,3.51-3.12,4-5.25,10.44-3.41,16.31a9,9,0,0,0-1.05-.73,8.62,8.62,0,0,0-3.62-1.16h-.65a8.9,8.9,0,0,0-1.59.13,7.94,7.94,0,0,0-1,.24,3.51,3.51,0,0,0-1.21-.22h0l-5.5,0a7.31,7.31,0,0,0-.33-2.66,8.5,8.5,0,0,0-1.14-2.37,9.22,9.22,0,0,0-1.65-1.87A8.57,8.57,0,0,0,188.36,61a6.74,6.74,0,0,0-2.7-.61h-.08a5.9,5.9,0,0,0-1,.07,8,8,0,0,0,1.14-1.7,4.12,4.12,0,0,0,.24-.52,7.7,7.7,0,0,0,1.11-1.67,9.69,9.69,0,0,0,.95-3.2,3.43,3.43,0,0,0-1.08-3l-1.68-1.55a3.4,3.4,0,0,0-2.32-.91,3.21,3.21,0,0,0-1.1.18,3,3,0,0,0-.49.2q0-.42,0-.87a2.26,2.26,0,0,0,0-.26,12.92,12.92,0,0,0-.44-2.54,10.5,10.5,0,0,0-.81-2.07,8,8,0,0,0-1.23-1.77,9.27,9.27,0,0,0-1.27-1.17,8.17,8.17,0,0,0-3.55-1.5l-.22,0c-.32,0-.63,0-.93,0a8.53,8.53,0,0,0-1.15.08,6.93,6.93,0,0,0-.79.17,3.57,3.57,0,0,0-1.14-.25l-5.05-.22c0-.12,0-.23,0-.35a8.32,8.32,0,0,0-.24-2.68,9.59,9.59,0,0,0-1-2.43,10.36,10.36,0,0,0-1.47-2,8.5,8.5,0,0,0-2-1.56,6.3,6.3,0,0,0-2.74-.82h-.29a5.23,5.23,0,0,0-2.82.8,5.48,5.48,0,0,0-2,2.15,6.44,6.44,0,0,0-.35.8,5.67,5.67,0,0,0-1,1.39,6.81,6.81,0,0,0-.73,2.54,7.82,7.82,0,0,0,0,1.45,6.86,6.86,0,0,0-2.15-.54c-.3,0-.6,0-.88,0l-.56,0c0-1.32,0-2.62.05-3.87a3.42,3.42,0,0,0-3.32-3.55L137.6,29h-.06a3.41,3.41,0,0,0-3.36,2.85,3.4,3.4,0,0,0-1.38,2.37,31.35,31.35,0,0,0-.19,3.14,7.52,7.52,0,0,0-1.27-.26l-.25,0h-.38a8.27,8.27,0,0,0-1.76.18,6.61,6.61,0,0,0-.76.22,3.45,3.45,0,0,0-1.11-.19h0l-4.41.09a.44.44,0,0,0,0-.1,9.24,9.24,0,0,0,.07-2.74A9.53,9.53,0,0,0,122,32a9.08,9.08,0,0,0-1.33-2.19,7.28,7.28,0,0,0-2-1.72,5.76,5.76,0,0,0-2.84-.76h-.11a5.4,5.4,0,0,0-3,1,6.28,6.28,0,0,0-1.86,2.06,6.81,6.81,0,0,0-.46,1,6.41,6.41,0,0,0-.89,1.21A7.78,7.78,0,0,0,108.6,35a8.91,8.91,0,0,0-.11,2.69,10.87,10.87,0,0,0,.28,1.53,6.76,6.76,0,0,0-3.61-1.43l-.28,0c.05-.29.11-.58.17-.88.19-1,.43-2,.71-3a3.43,3.43,0,0,0-3.3-4.3h-.17c-1.93.1-3.89.21-5.82.33a3.37,3.37,0,0,0-1.78.64,1.9,1.9,0,0,0-.36-.12,3.31,3.31,0,0,0-.83-.1,3.42,3.42,0,0,0-2.27.86l-.19.07-.11,0a3.93,3.93,0,0,1-.44.1c-2.23.18-4.47.37-6.67.58a8.35,8.35,0,0,0-2.88.79,9.68,9.68,0,0,0-1.84,1.17,8.8,8.8,0,0,0-1.63,1.71,3.5,3.5,0,0,0-.55,1.23,8.14,8.14,0,0,0-.8,1,3.46,3.46,0,0,0-.52,2.88l1.2,4.37a3.46,3.46,0,0,0,1.71,2.12c0,.33-.09.68-.14,1A55,55,0,0,0,78,56a19.29,19.29,0,0,0,.39,3.82,12.9,12.9,0,0,0,1.06,3,8.47,8.47,0,0,0,1.78,2.36,8.3,8.3,0,0,0,2,1.38,8,8,0,0,0,3.5.78,10,10,0,0,0,1.91-.19,7.4,7.4,0,0,0,2.84-1.26.18.18,0,0,0,.07,0,8.16,8.16,0,0,0,1.15-1.07,3.35,3.35,0,0,0,1.8.51,2.11,2.11,0,0,0,.35,0l5.84-.56a3.34,3.34,0,0,0,1.77-.69h0a7.25,7.25,0,0,0,3.06.64l.74,0,1.4-.15a8.24,8.24,0,0,0,3.13-1.08,9.53,9.53,0,0,0,.89-.57A8.06,8.06,0,0,0,115,64a10.7,10.7,0,0,0,1.36.09,9.65,9.65,0,0,0,1.72-.16,9.43,9.43,0,0,0,2.32-.76,3.4,3.4,0,0,0,1.31.26h.17c1.92-.1,3.9-.19,5.88-.27a3.5,3.5,0,0,0,1.81-.61l.16.07a7.83,7.83,0,0,0,3.36.7h.33l.62,0a8.22,8.22,0,0,0,1.68-.23,4.05,4.05,0,0,0,.47-.12,7.32,7.32,0,0,0-.66.89,8.31,8.31,0,0,0-.55,1.12,6.48,6.48,0,0,0-.8,1.07,7.42,7.42,0,0,0-.94,2.52,8.4,8.4,0,0,0,0,2.65l-3.72.26a7.44,7.44,0,0,0-.92-.67,6.11,6.11,0,0,0-3.29-1l-.47,0a6.08,6.08,0,0,0-1.48.3c-.12-.21-.24-.42-.37-.62a9.6,9.6,0,0,0-2.3-2.56,7.7,7.7,0,0,0-3.54-1.52,6.65,6.65,0,0,0-1.11-.09l-.71,0c-.23,0-.46,0-.68.09a3.4,3.4,0,0,0-2-.68l-.29,0c-2.49.21-5,.44-7.52.69a3.43,3.43,0,0,0-3,2.84,3.4,3.4,0,0,0-1.4,2.91c.05,1.12.09,2.48.12,4.05s0,3.27,0,5-.16,3.48-.3,5.2l-.16.07a6.11,6.11,0,0,0-3.1,2.63,7.25,7.25,0,0,0-.48,1,5.79,5.79,0,0,0-.88,1.17,7,7,0,0,0-.88,2.81.13.13,0,0,0,0,.06,9,9,0,0,0,.3,2.88s0,.1,0,.15a6.82,6.82,0,0,0,1.71,2.81,7.54,7.54,0,0,0,2.49,1.66,7.45,7.45,0,0,0,3,.57c.35,0,.72,0,1.09,0l.16,0a13.48,13.48,0,0,0,3.83-1.19,11.72,11.72,0,0,0,1.57-.92l.64.23a12.37,12.37,0,0,0,2.29.55,10.85,10.85,0,0,0,1.4.09,12.73,12.73,0,0,0,1.37-.08,10,10,0,0,0,2.92-.87,9.94,9.94,0,0,0,4.81-4.9,10,10,0,0,0,1-1.43,3.2,3.2,0,0,0,1,.16h.28a9,9,0,0,0,1.47,2,8.24,8.24,0,0,0,2.74,1.83,8.43,8.43,0,0,0,3.19.59h.48a8.23,8.23,0,0,0,2.77-.56,8.93,8.93,0,0,0,2-1.13l.28-.22a8.78,8.78,0,0,0,3.54,1c.33,0,.65,0,1,0a10.59,10.59,0,0,0,4.68-1.07l.06,0a3.39,3.39,0,0,0,1.3.26h.29c2.13-.18,4.26-.34,6.33-.5a3.42,3.42,0,0,0,1.9-.75l.5.2A8.68,8.68,0,0,0,160,95l.77,0,.67,0a10.29,10.29,0,0,0,1.67-.27,11.11,11.11,0,0,0,2-.7l.16-.08a3.32,3.32,0,0,0,1.43.32h.22l6.81-.41a3.36,3.36,0,0,0,1.61-.51c.32.11.65.21,1,.3a9.12,9.12,0,0,0,2.21.25h.63c.38,0,.89-.08,1.6-.18a9.9,9.9,0,0,0,2.9-.91,9,9,0,0,0,1.16-.68,9.71,9.71,0,0,0,3.82,1.15,12.41,12.41,0,0,0,1.34.07,11,11,0,0,0,1.66-.12,10.58,10.58,0,0,0,2.48-.69l.11,0a3.52,3.52,0,0,0,1.4.3h.16l6.26-.26a3.46,3.46,0,0,0,1.87-.65l.67.25.17,0a3.73,3.73,0,0,0-.71,1.83c-.4,3.36,3.18,5,7.22,6.53a110.7,110.7,0,0,0,13,3.82,71.75,71.75,0,0,0,15.14,2.23h0a12.86,12.86,0,0,0,3.55-.4,4.29,4.29,0,0,0,3.43-4C246.32,99.15,243.52,97.53,240.79,96.33ZM160.92,64.8a3.4,3.4,0,0,0-1.38,2.41,26.46,26.46,0,0,0-.13,3,7.72,7.72,0,0,0-1.81-.33h-.27a9.77,9.77,0,0,0-2.08.21,7.8,7.8,0,0,0-1,.3,3.44,3.44,0,0,0-1.1-.19H153c-1.68.06-3.38.14-5.08.22a8.34,8.34,0,0,0,0-2.68A8.78,8.78,0,0,0,145.5,63c-.12-.13-.26-.25-.39-.37h.33a3.3,3.3,0,0,0,1.55-.39c.22.1.45.19.68.27a8.54,8.54,0,0,0,2.73.42h.1c.37,0,.87,0,1.56-.11a8.63,8.63,0,0,0,2.93-.89,7.87,7.87,0,0,0,.84-.48,8.94,8.94,0,0,0,3.42,1.31,12,12,0,0,0,1.93.17c.26,0,.52,0,.77,0A3.39,3.39,0,0,0,160.92,64.8Zm19.74-1.6a6.14,6.14,0,0,0-.46,1,5.8,5.8,0,0,0-.89,1.18,6.33,6.33,0,0,0-.8,2.6,7.4,7.4,0,0,0,0,1.41,7,7,0,0,0-2.77-.65h-.51a9.87,9.87,0,0,0-1.22.07c0-1.16-.05-2.31,0-3.42a3.45,3.45,0,0,0-1-2.47,3.27,3.27,0,0,0-.35-.3,3.28,3.28,0,0,0,1-.41l.36.17a8.9,8.9,0,0,0,3.52.76l.77,0a10.12,10.12,0,0,0,1.48-.13,9.37,9.37,0,0,0,1.08-.26C180.84,62.91,180.75,63.05,180.66,63.2Z"/><path class="cls-4" d="M18,75.92a2.51,2.51,0,0,0,.62,1,2.23,2.23,0,0,0,1.21.59,4.05,4.05,0,0,0,2-.26,10.31,10.31,0,0,0,3-1.54,12.14,12.14,0,0,0,2.82-3,4.4,4.4,0,0,0,1.63.54,7.78,7.78,0,0,0,4-.43,4.73,4.73,0,0,0,1.56-.94c.24-1.41.49-2.82.73-4.23a6.57,6.57,0,0,1-3,1.15,5.94,5.94,0,0,1-1.52,0,5.33,5.33,0,0,1-1.35-.36l.39-1.21q.39-1.22.75-2.85c.25-1.1.49-2.27.73-3.53s.46-2.56.68-3.9.41-2.65.6-3.94.35-2.52.5-3.71.28-2.24.38-3.16c-2.21.54-4.41,1.1-6.62,1.68-.15,1.16-.32,2.51-.49,4s-.39,3.13-.64,4.8-.55,3.36-.9,5.07a45.11,45.11,0,0,1-1.27,4.88h-.92a4.75,4.75,0,0,0-.9.21,3.84,3.84,0,0,0-1,.51,7.5,7.5,0,0,0-2.5,3.26A9.28,9.28,0,0,0,17.79,75,5.39,5.39,0,0,0,18,75.92Zm2.57-4.2a1.2,1.2,0,0,1,.09-.45,2.36,2.36,0,0,1,.16-.35,1.67,1.67,0,0,1,.22-.3,1.25,1.25,0,0,1,.53-.37,1.5,1.5,0,0,1,.56-.11c.2,0,.41,0,.62,0a3.83,3.83,0,0,1-.52,1.33,1.94,1.94,0,0,1-.61.63,1,1,0,0,1-.72.21.17.17,0,0,1-.18-.06.5.5,0,0,1-.12-.17A.92.92,0,0,1,20.59,71.72Z"/><path class="cls-4" d="M38.15,69.14a3.62,3.62,0,0,0,1.43,1.37,3.32,3.32,0,0,0,1.73.46,6.7,6.7,0,0,0,1.84-.26A7.43,7.43,0,0,0,44.83,70a5.83,5.83,0,0,0,1.27-1,7.79,7.79,0,0,0,1.11-1.24,13,13,0,0,0,.84-1.33,15.58,15.58,0,0,0,.7-1.51L47.1,63.35A5.9,5.9,0,0,1,45.87,65a2.5,2.5,0,0,1-1,.56,1.32,1.32,0,0,1-1-.12,2.68,2.68,0,0,1-.65-.66,2.9,2.9,0,0,1-.45-1.5,14.69,14.69,0,0,0,1.3-.69,8.81,8.81,0,0,0,1.55-1.19,9.51,9.51,0,0,0,1.45-1.75,7.45,7.45,0,0,0,1-2.4A9.91,9.91,0,0,0,48.36,55,8.45,8.45,0,0,0,48.14,53a4.44,4.44,0,0,0-.85-1.81,2.47,2.47,0,0,0-1.9-.92A4.3,4.3,0,0,0,43,51a10,10,0,0,0-2.42,2.23A15.19,15.19,0,0,0,38.5,56.9a19,19,0,0,0-.73,2.24,21.31,21.31,0,0,0-.51,2.62,22.7,22.7,0,0,0-.17,2.72A12.27,12.27,0,0,0,37.35,67,7,7,0,0,0,38.15,69.14ZM43,59.21a6.08,6.08,0,0,1,.42-1.29,2.26,2.26,0,0,1,.83-1,.61.61,0,0,1,.86.1,1.26,1.26,0,0,1,.25,1,3,3,0,0,1-.53,1.39,3.7,3.7,0,0,1-.86.83,4.43,4.43,0,0,1-1.15.51A9.91,9.91,0,0,1,43,59.21Z"/><path class="cls-4" d="M51,68.48a3.56,3.56,0,0,0,2,.25,7.87,7.87,0,0,0,2-.56A6.23,6.23,0,0,0,56.66,67a8.43,8.43,0,0,0,1.69-2.56c0-.08.16-.39.36-.94a10.86,10.86,0,0,0,.5-2.16,15.57,15.57,0,0,0,.08-3.11,13.11,13.11,0,0,0-.86-3.77c.17-.3.34-.6.5-.9a5.63,5.63,0,0,0,.51-1.3,9.29,9.29,0,0,0,.21-1.14,7,7,0,0,0,0-1.11,4.05,4.05,0,0,0-.46-1.74,2.84,2.84,0,0,0-.94-1A2.73,2.73,0,0,0,57,46.87a5.42,5.42,0,0,0-1.39.06A4,4,0,0,0,53.58,48,7.42,7.42,0,0,0,52,50.32a9.36,9.36,0,0,0-.78,3.08,8.77,8.77,0,0,0,.42,3.42,8.72,8.72,0,0,0-1.35,1.87,11.32,11.32,0,0,0-.93,2.22,9.5,9.5,0,0,0-.4,3,6.64,6.64,0,0,0,.57,3.1A3.23,3.23,0,0,0,51,68.48Zm5.9-17.77a.43.43,0,0,1,.29-.22.36.36,0,0,1,.33.17,1.22,1.22,0,0,1,.26.67,2.39,2.39,0,0,1-.07.66,3,3,0,0,1-.29.71c-.06-.11-.12-.22-.17-.33s-.13-.23-.21-.36a4,4,0,0,1-.22-.42.75.75,0,0,1-.08-.45A1.06,1.06,0,0,1,56.89,50.71ZM51.71,61.65A5.2,5.2,0,0,1,52,60.54a4.48,4.48,0,0,1,.55-1c.22.4.45.86.69,1.39a3.63,3.63,0,0,1,.35,1.42,2.3,2.3,0,0,1-.23.94,1.18,1.18,0,0,1-.66.69.54.54,0,0,1-.55,0,1.15,1.15,0,0,1-.31-.35,1.71,1.71,0,0,1-.19-.59A4.65,4.65,0,0,1,51.71,61.65Z"/><path class="cls-4" d="M61.34,64.7a3.42,3.42,0,0,0,1.53,1.49,3.88,3.88,0,0,0,2,.3,7.79,7.79,0,0,0,2-.5,5.67,5.67,0,0,0,1.65-1.08,7.68,7.68,0,0,0,1.64-2.46c0-.08.15-.38.34-.91A9.72,9.72,0,0,0,71,59.42a14.07,14.07,0,0,0,0-3.05,13,13,0,0,0-1-3.72l.48-.87A5.43,5.43,0,0,0,71,50.51a8.36,8.36,0,0,0,.18-1.12,6.6,6.6,0,0,0,0-1.09,4.11,4.11,0,0,0-.52-1.72,2.91,2.91,0,0,0-2.24-1.46,5.06,5.06,0,0,0-1.4,0,3.79,3.79,0,0,0-2.07,1,6.77,6.77,0,0,0-1.54,2.21,8.69,8.69,0,0,0-.7,3,8.51,8.51,0,0,0,.52,3.37,8.38,8.38,0,0,0-1.32,1.8A11,11,0,0,0,61,58.71a9.1,9.1,0,0,0-.33,2.92A6.69,6.69,0,0,0,61.34,64.7Zm7-15.81a.4.4,0,0,1,.29-.2.36.36,0,0,1,.33.17,1.19,1.19,0,0,1,.28.67,1.92,1.92,0,0,1,0,.64,2.55,2.55,0,0,1-.27.7c-.06-.11-.12-.23-.19-.34s-.13-.23-.21-.35a3.92,3.92,0,0,1-.24-.42.68.68,0,0,1-.09-.44A1,1,0,0,1,68.35,48.89ZM63.41,59.5a5,5,0,0,1,.3-1.08,4.84,4.84,0,0,1,.53-1c.24.4.48.87.73,1.39a3.37,3.37,0,0,1,.4,1.41,2.12,2.12,0,0,1-.21.91,1.09,1.09,0,0,1-.65.66.56.56,0,0,1-.55,0,1.32,1.32,0,0,1-.32-.35,1.63,1.63,0,0,1-.21-.6A4.2,4.2,0,0,1,63.41,59.5Z"/><path class="cls-4" d="M92.34,37.3c-.08-.29-.15-.55-.22-.78l-.24-.79a2.87,2.87,0,0,1-.77.51,4.92,4.92,0,0,1-.85.31,6.61,6.61,0,0,1-1,.22c-2.25.18-4.51.37-6.75.58a4.71,4.71,0,0,0-1.69.45,6.48,6.48,0,0,0-1.21.77,5.13,5.13,0,0,0-1,1c.4,1.46.79,2.91,1.2,4.36a4.13,4.13,0,0,1,1.23-.87,3.61,3.61,0,0,1,1.28-.22q-.42,2.4-.85,5.61a50.79,50.79,0,0,0-.39,7.31,15.22,15.22,0,0,0,.31,3.1,9.7,9.7,0,0,0,.75,2.18,5,5,0,0,0,1.06,1.41,4.89,4.89,0,0,0,1.2.83,5.18,5.18,0,0,0,3.27.32A3.9,3.9,0,0,0,89.22,63a5.41,5.41,0,0,0,1.2-1.35,6.44,6.44,0,0,0,.87-2.48,6.64,6.64,0,0,0,0-1.94,5.56,5.56,0,0,0-.54-1.76,4.49,4.49,0,0,0-1.07-1.37,3.38,3.38,0,0,0-1.52-.77c0-.9,0-1.93.07-3.07.06-1,.16-2.16.32-3.52s.38-2.88.69-4.54A8.65,8.65,0,0,0,91,41.78a6.6,6.6,0,0,0,1.23-.54,5.63,5.63,0,0,0,1-.67c-.22-.88-.43-1.68-.63-2.39C92.49,37.88,92.42,37.59,92.34,37.3Zm-3.4,18.43a2.9,2.9,0,0,1,.6.65,2,2,0,0,1,.25,1.12,1.75,1.75,0,0,1-.24.86.55.55,0,0,1-.61.26c-.22,0-.39-.21-.5-.55A6.33,6.33,0,0,1,88.19,57a14.53,14.53,0,0,1-.11-1.59A2.07,2.07,0,0,1,88.94,55.73Z"/><path class="cls-4" d="M99.65,57.27c-.11-1.14-.21-2.39-.3-3.77s-.11-2.74-.07-4.1a2.8,2.8,0,0,1,.32-.95.53.53,0,0,1,.64-.31.63.63,0,0,1,.48.44,2.68,2.68,0,0,1,.13.74,6.5,6.5,0,0,1-.08,1,21.88,21.88,0,0,0,0,5.57,10.26,10.26,0,0,0,.49,2,5.94,5.94,0,0,0,.9,1.69,3.85,3.85,0,0,0,1.44,1.14,4.12,4.12,0,0,0,2.11.3c.26,0,.69-.06,1.27-.13a5.12,5.12,0,0,0,1.85-.66,6.59,6.59,0,0,0,1.91-1.73,5.17,5.17,0,0,0,.61-1,5.85,5.85,0,0,0,1.38,1.82,4.31,4.31,0,0,0,2.39,1,6.61,6.61,0,0,0,2,0,6.35,6.35,0,0,0,1.61-.54A5.33,5.33,0,0,0,120,59a7.71,7.71,0,0,0,.92-1.09l.06-.1c.13.7.28,1.38.45,2l5.91-.27c-.25-1.2-.49-2.44-.71-3.71-.19-1.09-.36-2.3-.53-3.61s-.27-2.63-.32-3.93a2.5,2.5,0,0,1,.27-.9.52.52,0,0,1,.62-.3.73.73,0,0,1,.51.46,2.5,2.5,0,0,1,.18.74,6.36,6.36,0,0,1,0,1,19.75,19.75,0,0,0,.39,5.32,9.85,9.85,0,0,0,.61,1.93,6.23,6.23,0,0,0,1,1.66,4.57,4.57,0,0,0,1.52,1.15,4.77,4.77,0,0,0,2.14.37l.62,0a5.65,5.65,0,0,0,1-.15,5.84,5.84,0,0,0,1.26-.45,5.09,5.09,0,0,0,1.31-.91,5.36,5.36,0,0,0,.9-1.1q.28,1.09.6,2.07c2.12,0,4.25-.09,6.37-.12a12.08,12.08,0,0,1-.69-1.78c-.18-.56-.38-1.25-.59-2.08a26.37,26.37,0,0,1-.56-2.79c0-.44,0-.71.15-.82a.79.79,0,0,1,.57-.13.6.6,0,0,1,.49.32,2.85,2.85,0,0,1,.26.65,4.13,4.13,0,0,1,.11,1,9.42,9.42,0,0,0,.77,3,6,6,0,0,0,.64,1.08,4,4,0,0,0,.94.95,4.63,4.63,0,0,0,1.29.67,5.43,5.43,0,0,0,1.69.24l1.24-.09a5.38,5.38,0,0,0,1.77-.56A5.44,5.44,0,0,0,155,57.19a4.8,4.8,0,0,0,.52-.8,7.08,7.08,0,0,0,1.55,1.72,5.4,5.4,0,0,0,2.51,1.08,7,7,0,0,0,2,.09,5.4,5.4,0,0,0,1.56-.4,4,4,0,0,0,1.15-.74,5.4,5.4,0,0,0,.81-.94.41.41,0,0,0,0-.09c.21.65.43,1.28.67,1.91l5.9.07c-.38-1.11-.74-2.25-1.1-3.43-.3-1-.6-2.13-.91-3.35s-.55-2.44-.74-3.64a1.77,1.77,0,0,1,.18-.82.46.46,0,0,1,.59-.24.94.94,0,0,1,.56.46,2.4,2.4,0,0,1,.25.69,4.74,4.74,0,0,1,.1.89,18.45,18.45,0,0,0,.94,4.93,11.2,11.2,0,0,0,.82,1.8A7.64,7.64,0,0,0,173.59,58a5.42,5.42,0,0,0,3.82,1.59H178a5.44,5.44,0,0,0,1-.08,5.68,5.68,0,0,0,1.22-.35,4.28,4.28,0,0,0,1.21-.76,4.65,4.65,0,0,0,1-1.35,6.64,6.64,0,0,0,.59-2.09l-1.69-1.57a3.86,3.86,0,0,1-1,1.62,2.15,2.15,0,0,1-1.07.52,1.69,1.69,0,0,1-1.37-.51,3.24,3.24,0,0,1-.93-1.43,9.53,9.53,0,0,1-.46-1.84,13.62,13.62,0,0,1-.18-2.26A9.47,9.47,0,0,0,176,47.6a7.12,7.12,0,0,0-.55-1.43,4.62,4.62,0,0,0-.72-1.05,5.84,5.84,0,0,0-.79-.73,4.7,4.7,0,0,0-2.06-.87,5.16,5.16,0,0,0-1.25,0,2.94,2.94,0,0,0-1,.32,3.09,3.09,0,0,0-.76.65,7.78,7.78,0,0,0-.65.92,5.49,5.49,0,0,1-.12-.61c0-.22,0-.44-.07-.64s0-.46,0-.69l-5.71-.25c0,.43.09.89.15,1.39s.14,1,.22,1.55.2,1.22.31,1.89c.21,1.18.45,2.39.73,3.65.13.6.28,1.24.44,1.91a1.91,1.91,0,0,1-.45.64,1.79,1.79,0,0,1-1,.47,2,2,0,0,1-1.16-.18,2.3,2.3,0,0,1-.91-.94,6.79,6.79,0,0,1-.63-1.51,13.34,13.34,0,0,1-.4-1.85c-.09-.66-.17-1.33-.21-2a42.75,42.75,0,0,1,0-5.08c-1.93-.07-3.86-.14-5.79-.19a33.68,33.68,0,0,0,0,7.6,20.59,20.59,0,0,0,.55,2.92v0a3.47,3.47,0,0,1-.52.75,1.88,1.88,0,0,1-1,.57,1.65,1.65,0,0,1-1.34-.4,1.4,1.4,0,0,1-.43-.5,4.36,4.36,0,0,1-.27-.59,3.18,3.18,0,0,1-.17-.71c-.07-.5-.14-.92-.2-1.27a5.39,5.39,0,0,0-.27-1,2.63,2.63,0,0,0-.44-.73,3.58,3.58,0,0,0-.66-.61,2,2,0,0,0,.29-.49,4.42,4.42,0,0,0,.26-.8,5.45,5.45,0,0,0,.14-1.07,8.1,8.1,0,0,0-.07-1.27,5.45,5.45,0,0,0-.23-.87,4.27,4.27,0,0,0-.58-1.09,4.11,4.11,0,0,0-1-1,3.13,3.13,0,0,0-1.53-.52,5.26,5.26,0,0,0-2.51.35A3.75,3.75,0,0,0,142,43.88c-.14-1.62-.22-3.2-.25-4.76s0-3.08,0-4.56c-1.94-.06-3.88-.1-5.81-.13a29.71,29.71,0,0,0-.18,3.24c0,1,0,2.36.1,3.93s.24,3.36.5,5.38c.19,1.48.4,2.94.65,4.39.11.67.23,1.36.37,2.07l0,0a4.32,4.32,0,0,1-.83,1,2.5,2.5,0,0,1-1.13.63,1.39,1.39,0,0,1-1.32-.48,2.76,2.76,0,0,1-.78-1.51,10.42,10.42,0,0,1-.25-2,15.87,15.87,0,0,1,.08-2.46,10.55,10.55,0,0,0-.1-2,8.37,8.37,0,0,0-.39-1.52,4.38,4.38,0,0,0-.6-1.1,5.09,5.09,0,0,0-.72-.74,3.65,3.65,0,0,0-2-.82,5,5,0,0,0-1.26.09,3.22,3.22,0,0,0-1,.42,3.66,3.66,0,0,0-.84.75,12.25,12.25,0,0,0-.77,1c0-.21,0-.42,0-.66v-.69c0-.25,0-.49,0-.74-1.9,0-3.81.07-5.71.12,0,.45,0,.95,0,1.49s0,1,.05,1.66,0,1.31.09,2c.07,1.26.18,2.57.31,3.93.06.64.14,1.33.22,2.06a2.48,2.48,0,0,1-.52.72,2.15,2.15,0,0,1-1,.58,1.88,1.88,0,0,1-1.14-.12,2,2,0,0,1-.82-1,6.6,6.6,0,0,1-.45-1.6,13.31,13.31,0,0,1-.19-2c0-.72,0-1.44,0-2.17a49.32,49.32,0,0,1,.57-5.52q-2.89.09-5.79.21a40.82,40.82,0,0,0-.82,8.24,22.3,22.3,0,0,0,.2,3,.41.41,0,0,1,0,.09,4.38,4.38,0,0,1-.83,1.14,2.24,2.24,0,0,1-1.14.67,1.47,1.47,0,0,1-1.33-.57,2.77,2.77,0,0,1-.66-1.57,11.8,11.8,0,0,1-.1-2.06,19.26,19.26,0,0,1,.22-2.59,13.64,13.64,0,0,0,0-2.08,6.57,6.57,0,0,0-.29-1.56,4.33,4.33,0,0,0-.52-1.12,4.08,4.08,0,0,0-.65-.75,3.47,3.47,0,0,0-1.93-.79,4.43,4.43,0,0,0-1.26.16,3.14,3.14,0,0,0-1,.48,4.31,4.31,0,0,0-.89.83,12.08,12.08,0,0,0-.83,1.12c0-.54,0-1.2.1-2s.15-1.64.28-2.58.29-1.94.5-3,.47-2.12.76-3.23c-1.92.1-3.85.21-5.77.33a35.93,35.93,0,0,0-.75,3.53c-.2,1.19-.38,2.66-.55,4.41s-.27,3.81-.31,6.17c0,1.34,0,2.72,0,4.13,0,1.21.1,2.53.22,4a39.61,39.61,0,0,0,.53,4.19c2-.2,3.92-.39,5.88-.57C99.94,59.88,99.79,58.6,99.65,57.27ZM142.6,47a1.5,1.5,0,0,1,.53-.45,1.14,1.14,0,0,1,.79-.1.94.94,0,0,1,.61.63,1.58,1.58,0,0,1,.12.63,1.14,1.14,0,0,1-.12.46.68.68,0,0,1-.26.27.82.82,0,0,1-.27.13,1.77,1.77,0,0,1-.51,0,2.11,2.11,0,0,1-.45-.08l-.47-.14c0-.37-.11-.74-.16-1.11C142.47,47.13,142.54,47,142.6,47Z"/><path class="cls-4" d="M112,38.83a5,5,0,0,0,.81,1.36,3.79,3.79,0,0,0,1.07.91,2.5,2.5,0,0,0,1.24.3,2.08,2.08,0,0,0,1.15-.38,2.78,2.78,0,0,0,.86-1,4.16,4.16,0,0,0,.49-1.39,5.63,5.63,0,0,0,0-1.7,6.06,6.06,0,0,0-.44-1.66,5.53,5.53,0,0,0-.82-1.36,3.67,3.67,0,0,0-1.07-.92,2.24,2.24,0,0,0-1.19-.32,2.08,2.08,0,0,0-1.14.36,2.88,2.88,0,0,0-.85,1,4.47,4.47,0,0,0-.51,1.4,5.84,5.84,0,0,0-.06,1.68A6.49,6.49,0,0,0,112,38.83Z"/><path class="cls-4" d="M154.16,39a7,7,0,0,0,1,1.33,5,5,0,0,0,1.18.92,3.05,3.05,0,0,0,1.28.36,2,2,0,0,0,1.11-.27,2.14,2.14,0,0,0,.76-.84,3.3,3.3,0,0,0,.35-1.27,5,5,0,0,0-.15-1.59,6.92,6.92,0,0,0-.62-1.58,7,7,0,0,0-1-1.33,5,5,0,0,0-1.17-.93,2.74,2.74,0,0,0-1.24-.38,1.82,1.82,0,0,0-1.1.26,2.1,2.1,0,0,0-.76.85,3.31,3.31,0,0,0-.35,1.28,4.77,4.77,0,0,0,.12,1.57A6.28,6.28,0,0,0,154.16,39Z"/><path class="cls-4" d="M45,99.87a2.35,2.35,0,0,1-.44.64.75.75,0,0,1-.63.26.55.55,0,0,1-.49-.43,3.56,3.56,0,0,1-.18-1,9.5,9.5,0,0,1,0-1.48c0-.56.12-1.12.2-1.68.2-1.33.49-2.84.87-4.5a20.73,20.73,0,0,0,.49-3.31,11.41,11.41,0,0,0-.1-2.36,5.06,5.06,0,0,0-.52-1.62,3.55,3.55,0,0,0-.79-1,3.25,3.25,0,0,0-2.57-.7,6.48,6.48,0,0,0-3.3,1.6,18.61,18.61,0,0,0-2.76,3.35A3.41,3.41,0,0,0,33.89,86a3.1,3.1,0,0,0-1.19-.66,3.14,3.14,0,0,0-1.44-.06,6.68,6.68,0,0,0-1.82.66A8.24,8.24,0,0,0,27.88,87a11.73,11.73,0,0,0-1.44,1.58c-.46.61-.94,1.3-1.43,2.07,0-.32.07-.68.14-1.09s.14-.8.22-1.16.21-.85.31-1.27c-2.69.82-5.37,1.66-8,2.54-.16.79-.32,1.64-.5,2.56s-.33,1.76-.51,2.82-.36,2.21-.55,3.46q-.52,3.36-.94,6.85c-.22,2-.42,4.17-.6,6.51s-.25,4.62-.21,6.78q4.2-1.55,8.43-3,0-3.25.21-6.65c.05-1,.11-2,.19-3.08s.17-2.2.27-3.34.22-2.28.36-3.43.3-2.26.49-3.34a3.33,3.33,0,0,1,.63-1.3.88.88,0,0,1,.72-.34c.24.06.38.29.43.69a6.13,6.13,0,0,1,0,1.29c0,.54-.13,1.15-.25,1.84-.29,1.59-.54,3.3-.76,5.13-.17,1.56-.3,3.36-.39,5.41a56,56,0,0,0,.1,6.44q4.29-1.44,8.59-2.76-.07-3,0-6,.06-2.61.32-5.78a58.79,58.79,0,0,1,.84-6.13c0-.22.11-.51.17-.85s.14-.67.23-1a3.6,3.6,0,0,1,.32-.83.6.6,0,0,1,.43-.37q.41,0,.48.48a5.15,5.15,0,0,1,0,1.2c-.05.5-.13,1.08-.26,1.74a40.11,40.11,0,0,0-1,8.8,15.71,15.71,0,0,0,.29,3.05,7,7,0,0,0,1,2.46,3.54,3.54,0,0,0,1.85,1.4,5.13,5.13,0,0,0,3-.13,7,7,0,0,0,3-1.9,9.65,9.65,0,0,0,1.13-1.42,11.32,11.32,0,0,0,1-1.94,15.67,15.67,0,0,0,.79-2.57,19.19,19.19,0,0,0,.43-3.29l-2-.19A5.31,5.31,0,0,1,45,99.87Z"/><path class="cls-4" d="M60.92,90.69a8.21,8.21,0,0,0-1.11-2.44,4.61,4.61,0,0,0-1.67-1.51A3.63,3.63,0,0,0,56,86.38a7.13,7.13,0,0,0-3.06,1.25,10.87,10.87,0,0,0-1.26,1.07,10,10,0,0,0-1.24,1.53,12.62,12.62,0,0,0-1.13,2.11,16.64,16.64,0,0,0-.89,2.74,22.27,22.27,0,0,0-.46,3.29,18.63,18.63,0,0,0,0,2.61,11.73,11.73,0,0,0,.34,2,7.14,7.14,0,0,0,.57,1.5,4.47,4.47,0,0,0,1.93,2.08,3.54,3.54,0,0,0,1.32.42,6.47,6.47,0,0,0,1.8,0,8,8,0,0,0,2-.62,7.2,7.2,0,0,0,2-1.35,8.43,8.43,0,0,0,1.68-2.28,14,14,0,0,0,1.09-2.81,19.56,19.56,0,0,0,.57-3.07,20.23,20.23,0,0,0,.1-3A13.45,13.45,0,0,0,60.92,90.69Zm-3.05,7.62a6.83,6.83,0,0,1-.71,1.86,1.68,1.68,0,0,1-1.32,1,.85.85,0,0,1-.78-.39,3.09,3.09,0,0,1-.47-1.26,10.58,10.58,0,0,1-.07-2.7A8.17,8.17,0,0,1,55,94.11a3.88,3.88,0,0,1,.81-1.29,1.44,1.44,0,0,1,1-.43,1.1,1.1,0,0,1,.8.62,4,4,0,0,1,.39,1.12,9.27,9.27,0,0,1,.1,1.54A13.57,13.57,0,0,1,57.87,98.31Z"/><path class="cls-4" d="M85.93,95.23a2.89,2.89,0,0,1-1.08.51,1.82,1.82,0,0,1-1.08-.14A3.06,3.06,0,0,1,83,95a2.77,2.77,0,0,1-.67-1.44,12.6,12.6,0,0,0,1.41-.63,8.52,8.52,0,0,0,1.62-1.09,8.07,8.07,0,0,0,1.47-1.64,5.82,5.82,0,0,0,.9-2.27,8.11,8.11,0,0,0,0-2.14,8,8,0,0,0-.44-1.87,4.79,4.79,0,0,0-1.15-1.77,3.45,3.45,0,0,0-2.23-.93,5.06,5.06,0,0,0-2.59.61,9,9,0,0,0-2.51,2.07,11.78,11.78,0,0,0-2,3.45,14.92,14.92,0,0,0-.59,2.14,15.13,15.13,0,0,0-.31,2.49A16.5,16.5,0,0,0,76,94.46a3.78,3.78,0,0,1-.65,1.11,2.69,2.69,0,0,1-.88.71,1.7,1.7,0,0,1-1,.16,1.82,1.82,0,0,1-1.21-.77,3.79,3.79,0,0,1-.58-1.56,10.79,10.79,0,0,1-.1-2.1,21.55,21.55,0,0,1,.26-2.36,45.42,45.42,0,0,1,1.5-6.2l-5.3,1v0a3.42,3.42,0,0,0-1.16-1.37,2.11,2.11,0,0,0-1.59-.31A3,3,0,0,0,64,83.4a4.76,4.76,0,0,0-1,1.22,7,7,0,0,0-1,3.55,5.33,5.33,0,0,0,.5,2.52,2.6,2.6,0,0,0,1.41,1.4c-.15.86-.29,1.6-.42,2.21A13.86,13.86,0,0,1,63,95.84,8.29,8.29,0,0,1,62.63,97L64,98.62c.3-1,.57-2,.78-3s.4-2,.55-3.14l1.36-.28a22.89,22.89,0,0,0-.25,5.72,10.38,10.38,0,0,0,.4,2,4.86,4.86,0,0,0,.86,1.68,3.43,3.43,0,0,0,1.44,1.06,4,4,0,0,0,2.14.16,4.63,4.63,0,0,0,1.63-.5,7.46,7.46,0,0,0,2.44-2.1A10.15,10.15,0,0,0,76.14,99a11.7,11.7,0,0,0,.65-1.33A6.71,6.71,0,0,0,77.64,99a4.56,4.56,0,0,0,1.75,1.35,4.66,4.66,0,0,0,2,.47,7.72,7.72,0,0,0,2.05-.21,8.25,8.25,0,0,0,1.81-.66,5.31,5.31,0,0,0,1.33-.91A6.89,6.89,0,0,0,87.7,97.9a10.47,10.47,0,0,0,.81-1.25,13.67,13.67,0,0,0,.65-1.42l-2-1.52A5.1,5.1,0,0,1,85.93,95.23Zm-3.79-5.58a4.73,4.73,0,0,1,.35-1.22,1.84,1.84,0,0,1,.83-.91.82.82,0,0,1,1,.12,1.2,1.2,0,0,1,.38,1,2.35,2.35,0,0,1-.46,1.32,3.16,3.16,0,0,1-.89.77,4.56,4.56,0,0,1-1.24.46A8.34,8.34,0,0,1,82.14,89.65Z"/><path class="cls-4" d="M120,78.28a15.81,15.81,0,0,0-.54-2.69,9.41,9.41,0,0,0-1-2.27,6.11,6.11,0,0,0-1.49-1.66,4.43,4.43,0,0,0-2-.86,4.53,4.53,0,0,0-1,0,4.93,4.93,0,0,0-1.13.23,4.56,4.56,0,0,0-1,.51,2.59,2.59,0,0,0-.79.79s0-.17,0-.38,0-.43,0-.67,0-.47,0-.68,0-.33,0-.38q-3.73.33-7.47.69c0,1.15.09,2.53.12,4.16s0,3.35,0,5.17-.17,3.67-.33,5.51a46.7,46.7,0,0,1-.69,5.1,4.8,4.8,0,0,0-1-.26,4,4,0,0,0-.93-.07,2.6,2.6,0,0,0-1,.23,2.75,2.75,0,0,0-1.45,1.15,3.69,3.69,0,0,0-.47,1.44,5.49,5.49,0,0,0,.19,1.76,3.42,3.42,0,0,0,.88,1.44,4.17,4.17,0,0,0,1.42.93,4.88,4.88,0,0,0,2.39.25,9.9,9.9,0,0,0,2.85-.89A8.28,8.28,0,0,0,108,94.89a9.59,9.59,0,0,0,.9.51,8.7,8.7,0,0,0,1.36.57,9,9,0,0,0,1.66.4,7.08,7.08,0,0,0,1.84,0,6.26,6.26,0,0,0,1.93-.58,6.58,6.58,0,0,0,1.88-1.35,7.35,7.35,0,0,0,1.71-3,20.93,20.93,0,0,0,.85-4.17,32,32,0,0,0,.15-4.61Q120.21,80.28,120,78.28Zm-18.46,14.6a1.35,1.35,0,0,1-.92.17.38.38,0,0,1-.15-.09.35.35,0,0,1-.15-.3.56.56,0,0,1,.16-.45.5.5,0,0,1,.21-.1,1.44,1.44,0,0,1,.51,0l.45.1.42.19A2.11,2.11,0,0,1,101.52,92.88ZM113.33,83a20.3,20.3,0,0,1-.37,4.22,7.35,7.35,0,0,1-.86,2.38,2,2,0,0,1-1.08,1,1.45,1.45,0,0,1-1-.06c.09-.36.22-.92.37-1.69s.28-1.72.4-2.87.22-2.49.29-4,.09-3.24.06-5.14a2.16,2.16,0,0,1,.92.11,1.39,1.39,0,0,1,.72.78,6.64,6.64,0,0,1,.46,1.89A25.29,25.29,0,0,1,113.33,83Z"/><path class="cls-4" d="M141.46,67.41a4.05,4.05,0,0,0-1.19-.86,2.81,2.81,0,0,0-1.32-.28,2.35,2.35,0,0,0-1.23.38,2.9,2.9,0,0,0-.9.94,3.93,3.93,0,0,0-.49,1.36,4.69,4.69,0,0,0,0,1.63,5,5,0,0,0,.52,1.62,4.93,4.93,0,0,0,.92,1.29,4.1,4.1,0,0,0,1.21.85,2.89,2.89,0,0,0,1.36.25,2.42,2.42,0,0,0,1.23-.39,2.92,2.92,0,0,0,.91-.94,3.81,3.81,0,0,0,.49-1.35,5,5,0,0,0,0-1.63,5.46,5.46,0,0,0-1.48-2.87Z"/><path class="cls-4" d="M182,66.89a3,3,0,0,0-.36,1.21,4,4,0,0,0,.16,1.47,4.92,4.92,0,0,0,.68,1.49,5.82,5.82,0,0,0,1,1.21,5.17,5.17,0,0,0,1.29.81,3.34,3.34,0,0,0,1.38.28,2.31,2.31,0,0,0,1.19-.3,2.17,2.17,0,0,0,.81-.81,3,3,0,0,0,.35-1.19,4.13,4.13,0,0,0-.19-1.47,5.21,5.21,0,0,0-.69-1.45,6.47,6.47,0,0,0-1.07-1.2,5.1,5.1,0,0,0-1.28-.83,3.28,3.28,0,0,0-1.33-.32,2.26,2.26,0,0,0-1.19.29A2.22,2.22,0,0,0,182,66.89Z"/><path class="cls-4" d="M211.79,83a2.61,2.61,0,0,1-.31.66,3.6,3.6,0,0,1-.76.87,2.64,2.64,0,0,1-1.13.54,2,2,0,0,1-1.46-.39,2.7,2.7,0,0,1-1-1.25,7.89,7.89,0,0,1-.5-1.66,10.3,10.3,0,0,1-.22-2.05,7.3,7.3,0,0,0-.35-1.69,6.09,6.09,0,0,0-.6-1.28,4.17,4.17,0,0,0-.78-.92,6.4,6.4,0,0,0-.85-.63,5.33,5.33,0,0,0-2.21-.71,6.91,6.91,0,0,0-1.34.07,3.21,3.21,0,0,0-1,.35,3.05,3.05,0,0,0-.81.63,9.44,9.44,0,0,0-.69.87,4,4,0,0,1-.13-.55c0-.21-.06-.4-.08-.59s0-.42-.05-.63l-6.13,0c0,.39.11.82.18,1.28s.16.88.26,1.43.22,1.12.36,1.73c.24,1.08.52,2.2.83,3.35.15.55.31,1.13.5,1.74a1.91,1.91,0,0,1-.47.62,2.15,2.15,0,0,1-1,.48,2.55,2.55,0,0,1-1.24-.1,2.32,2.32,0,0,1-1-.83,6,6,0,0,1-.69-1.36,10.4,10.4,0,0,1-.45-1.71c-.12-.61-.21-1.23-.27-1.85a34.61,34.61,0,0,1-.1-4.73L182,74.8a27.42,27.42,0,0,0,.18,7.09,15.73,15.73,0,0,0,.65,2.69v0a3.14,3.14,0,0,1-.54.73,2.22,2.22,0,0,1-1,.58,2,2,0,0,1-1.45-.31,1.35,1.35,0,0,1-.47-.45,3.64,3.64,0,0,1-.3-.54,3.23,3.23,0,0,1-.2-.65c-.08-.46-.16-.86-.24-1.18a3.64,3.64,0,0,0-.31-.88,2.34,2.34,0,0,0-.48-.66,3.56,3.56,0,0,0-.72-.54,1.91,1.91,0,0,0,.3-.48,4.41,4.41,0,0,0,.27-.76,4.81,4.81,0,0,0,.12-1,5.57,5.57,0,0,0-.1-1.19,4,4,0,0,0-.27-.81,3.73,3.73,0,0,0-.64-1,4.33,4.33,0,0,0-1.11-.87,3.6,3.6,0,0,0-1.66-.43,6.5,6.5,0,0,0-2.7.42,3.91,3.91,0,0,0-1.87,1.52c-.19-1.52-.32-3-.39-4.48s-.09-2.9-.06-4.3l-6.3.05a26,26,0,0,0-.11,3.07q0,1.5.21,3.72c.13,1.48.35,3.17.69,5.08.23,1.38.5,2.75.8,4.11.14.63.29,1.28.46,1.94l0,0a4.62,4.62,0,0,1-.87,1,2.91,2.91,0,0,1-1.2.64,1.63,1.63,0,0,1-1.44-.4,2.59,2.59,0,0,1-.88-1.4,9.27,9.27,0,0,1-.32-1.87A13,13,0,0,1,160,81a9.11,9.11,0,0,0-.16-1.9,6.66,6.66,0,0,0-.47-1.43,4,4,0,0,0-.68-1,4.85,4.85,0,0,0-.79-.68,4.33,4.33,0,0,0-2.16-.71,5.66,5.66,0,0,0-1.36.13,3.68,3.68,0,0,0-1.08.42,4.12,4.12,0,0,0-.89.74,11.34,11.34,0,0,0-.8,1,3.91,3.91,0,0,1-.07-.63c0-.22,0-.44,0-.65l0-.71-6.2.28c0,.44,0,.91,0,1.43s.06,1,.1,1.59.1,1.25.17,1.94c.12,1.21.28,2.45.46,3.74.09.62.2,1.27.32,2a2.61,2.61,0,0,1-.55.71,2.4,2.4,0,0,1-1.08.58,2.11,2.11,0,0,1-1.24-.07,1.92,1.92,0,0,1-.92-.89,6,6,0,0,1-.54-1.52,13,13,0,0,1-.27-1.9q-.07-1-.06-2.07a43.51,43.51,0,0,1,.42-5.3c-2.09.11-4.19.23-6.28.36a34.92,34.92,0,0,0-.6,7.94,18.73,18.73,0,0,0,.33,2.82,1.74,1.74,0,0,1-.3.42,2.13,2.13,0,0,1-.84.55,1.75,1.75,0,0,1-1,.06,2.49,2.49,0,0,1-1.34-.78,3.85,3.85,0,0,1-.78-1.44,8.27,8.27,0,0,1-.34-1.88A14.44,14.44,0,0,1,131,82a31.36,31.36,0,0,1,.82-5.42l-5.37.38v0a4.53,4.53,0,0,0-1.36-1.33,2.75,2.75,0,0,0-1.7-.43,2.53,2.53,0,0,0-1.24.43,3.34,3.34,0,0,0-.94,1,4.66,4.66,0,0,0-.55,1.41,4.93,4.93,0,0,0-.07,1.68,5.23,5.23,0,0,0,.81,2.32,3.58,3.58,0,0,0,1.63,1.38c-.06.76-.11,1.41-.18,2a9.9,9.9,0,0,1-.22,1.33,5.4,5.4,0,0,1-.29,1l1.55,1.59c.2-.89.36-1.76.47-2.62a25.84,25.84,0,0,0,.21-2.75l1.38-.13a17.27,17.27,0,0,0,.4,5.08,9.2,9.2,0,0,0,.64,1.85,5.31,5.31,0,0,0,1.08,1.56,4.78,4.78,0,0,0,1.61,1.07,5,5,0,0,0,2.23.32,4.59,4.59,0,0,0,1.63-.31,5.71,5.71,0,0,0,1.29-.71,5.29,5.29,0,0,0,1-.94,7.24,7.24,0,0,0,.72-1.08c.08-.14.14-.28.21-.42a5.66,5.66,0,0,0,1.55,1.68,5.08,5.08,0,0,0,2.61.89,8,8,0,0,0,2.17-.11,7.3,7.3,0,0,0,1.71-.58,5.39,5.39,0,0,0,1.31-.89,7.31,7.31,0,0,0,1-1.07l.06-.1c.17.66.36,1.31.56,1.94q3.18-.27,6.36-.5c-.3-1.13-.6-2.29-.88-3.49-.23-1-.45-2.17-.67-3.41a36.91,36.91,0,0,1-.47-3.73,2,2,0,0,1,.26-.86.6.6,0,0,1,.67-.31.76.76,0,0,1,.56.42,2,2,0,0,1,.22.7,5.47,5.47,0,0,1,0,.92,16.34,16.34,0,0,0,.57,5,8.54,8.54,0,0,0,.72,1.81,5.88,5.88,0,0,0,1.14,1.52,4.7,4.7,0,0,0,1.68,1,5.58,5.58,0,0,0,2.31.26l.67,0a6.73,6.73,0,0,0,1.1-.18,7,7,0,0,0,1.34-.48,5.87,5.87,0,0,0,1.39-.92,5.61,5.61,0,0,0,.94-1.08c.22.68.45,1.32.7,1.93,2.28-.15,4.55-.29,6.83-.42a9.55,9.55,0,0,1-.78-1.63q-.32-.78-.69-1.92a22.5,22.5,0,0,1-.66-2.61c-.06-.4,0-.66.14-.77a.94.94,0,0,1,.61-.15.67.67,0,0,1,.54.29,2.16,2.16,0,0,1,.29.59,3.55,3.55,0,0,1,.14.91,7.76,7.76,0,0,0,.9,2.8,6.13,6.13,0,0,0,.7,1,4.11,4.11,0,0,0,1,.84,5.06,5.06,0,0,0,1.4.56,6.05,6.05,0,0,0,1.81.14q.44,0,1.32-.15A6.2,6.2,0,0,0,183.7,88a4,4,0,0,0,.53-.77,6.69,6.69,0,0,0,1.69,1.53,6.1,6.1,0,0,0,2.7.86,9,9,0,0,0,2.15,0,6.58,6.58,0,0,0,1.65-.46,4.2,4.2,0,0,0,1.22-.75,5.21,5.21,0,0,0,.86-.91l.05-.09c.23.59.47,1.16.74,1.72l6.28-.27c-.41-1-.82-2-1.21-3.09-.34-.91-.67-1.92-1-3a31.58,31.58,0,0,1-.83-3.32,1.43,1.43,0,0,1,.17-.75.53.53,0,0,1,.63-.25.89.89,0,0,1,.6.39,1.84,1.84,0,0,1,.29.62,4,4,0,0,1,.11.82,14.24,14.24,0,0,0,1.06,4.47,9.39,9.39,0,0,0,.89,1.61,6.69,6.69,0,0,0,1.29,1.37,5.6,5.6,0,0,0,1.76.94,6.27,6.27,0,0,0,2.32.28l.66,0a6.7,6.7,0,0,0,1.07-.14,7.11,7.11,0,0,0,1.28-.39,4.89,4.89,0,0,0,1.28-.78A4.42,4.42,0,0,0,213,86.27a5.62,5.62,0,0,0,.62-1.93Zm-39.5-3a.87.87,0,0,1-.27.27,1.33,1.33,0,0,1-.28.13,1.75,1.75,0,0,1-.55.06,2.65,2.65,0,0,1-.5,0l-.5-.11c-.07-.35-.13-.69-.2-1a3.39,3.39,0,0,1,.2-.28,1.54,1.54,0,0,1,.56-.45,1.38,1.38,0,0,1,.85-.12.93.93,0,0,1,.67.56,1.33,1.33,0,0,1,.14.6A.94.94,0,0,1,172.29,80Z"/><path class="cls-5" d="M19.37,73.73a2.51,2.51,0,0,0,.62,1,2.27,2.27,0,0,0,1.21.59,4.09,4.09,0,0,0,2-.26,9.94,9.94,0,0,0,3-1.55,11.74,11.74,0,0,0,2.82-3A4.47,4.47,0,0,0,30.6,71a7.49,7.49,0,0,0,2,0,8,8,0,0,0,2-.47,4.58,4.58,0,0,0,1.55-.94c.25-1.42.49-2.82.73-4.23a6.65,6.65,0,0,1-1.44.77,6.27,6.27,0,0,1-1.55.38,6,6,0,0,1-1.52,0A5.57,5.57,0,0,1,31,66.19L31.42,65c.26-.8.51-1.75.76-2.85s.49-2.26.72-3.53.47-2.56.68-3.9.42-2.64.6-3.93.36-2.53.51-3.71.27-2.24.37-3.16c-2.21.54-4.41,1.09-6.61,1.67-.16,1.17-.33,2.52-.5,4s-.38,3.13-.64,4.8-.55,3.36-.9,5.07a43.46,43.46,0,0,1-1.26,4.88,7.06,7.06,0,0,0-.92,0,3.56,3.56,0,0,0-.91.21,3.79,3.79,0,0,0-1,.51,7.45,7.45,0,0,0-2.51,3.26,9.5,9.5,0,0,0-.67,4.45A5.46,5.46,0,0,0,19.37,73.73ZM22,69.53a1.42,1.42,0,0,1,.08-.45,2,2,0,0,1,.17-.36,1.45,1.45,0,0,1,.21-.29,1.41,1.41,0,0,1,.54-.38,1.65,1.65,0,0,1,.55-.1q.3,0,.63,0a4.37,4.37,0,0,1-.52,1.33,2,2,0,0,1-.62.63,1,1,0,0,1-.71.21.16.16,0,0,1-.18-.06.83.83,0,0,1-.12-.17A.65.65,0,0,1,22,69.53Z"/><path class="cls-5" d="M39.5,66.94a3.64,3.64,0,0,0,1.43,1.38,3.34,3.34,0,0,0,1.73.46,6.35,6.35,0,0,0,1.84-.27,7.4,7.4,0,0,0,1.68-.72,5.83,5.83,0,0,0,1.27-1,7.74,7.74,0,0,0,1.11-1.24,13,13,0,0,0,.84-1.33c.27-.51.5-1,.71-1.51l-1.66-1.56a5.9,5.9,0,0,1-1.23,1.62,2.44,2.44,0,0,1-1,.56,1.3,1.3,0,0,1-.95-.12,2.52,2.52,0,0,1-.66-.66,2.9,2.9,0,0,1-.45-1.5,13.41,13.41,0,0,0,1.3-.69A8.81,8.81,0,0,0,47,59.18a9.89,9.89,0,0,0,1.46-1.75,7.68,7.68,0,0,0,1-2.4,11.2,11.2,0,0,0,.24-2.25,9,9,0,0,0-.22-2A4.5,4.5,0,0,0,48.64,49a2.49,2.49,0,0,0-1.89-.91,4.25,4.25,0,0,0-2.35.72A10.06,10.06,0,0,0,42,51.05a15.52,15.52,0,0,0-2.12,3.66A20.37,20.37,0,0,0,39.12,57a19.14,19.14,0,0,0-.5,2.61,20.86,20.86,0,0,0-.18,2.73,12.8,12.8,0,0,0,.26,2.55A6.8,6.8,0,0,0,39.5,66.94ZM44.37,57a5.44,5.44,0,0,1,.43-1.29,2.18,2.18,0,0,1,.82-1,.63.63,0,0,1,.87.09,1.26,1.26,0,0,1,.24,1,3,3,0,0,1-.53,1.39,3.45,3.45,0,0,1-.86.82,4.08,4.08,0,0,1-1.14.52A11.24,11.24,0,0,1,44.37,57Z"/><path class="cls-5" d="M52.35,66.29a3.64,3.64,0,0,0,2,.25,7.93,7.93,0,0,0,2-.57A6,6,0,0,0,58,64.83a8.75,8.75,0,0,0,1.7-2.56c0-.08.15-.39.35-.94a10.81,10.81,0,0,0,.5-2.17,14.76,14.76,0,0,0,.08-3.1,13.11,13.11,0,0,0-.86-3.77l.51-.9a6.26,6.26,0,0,0,.5-1.3A9.29,9.29,0,0,0,61,49a6.07,6.07,0,0,0,0-1.11,4.15,4.15,0,0,0-.47-1.74,2.94,2.94,0,0,0-.93-1,2.76,2.76,0,0,0-1.24-.41,5.08,5.08,0,0,0-1.4.06,3.94,3.94,0,0,0-2.07,1.1,7.42,7.42,0,0,0-1.59,2.29,9.12,9.12,0,0,0-.77,3.08A8.37,8.37,0,0,0,53,54.62a9.38,9.38,0,0,0-1.36,1.87,12.08,12.08,0,0,0-.93,2.23,9.75,9.75,0,0,0-.4,3,6.63,6.63,0,0,0,.58,3.1A3.14,3.14,0,0,0,52.35,66.29Zm5.89-17.77a.45.45,0,0,1,.3-.22c.11,0,.21,0,.32.17a1.13,1.13,0,0,1,.26.67,2.06,2.06,0,0,1-.07.66,3.75,3.75,0,0,1-.28.71l-.18-.34-.2-.35a4,4,0,0,1-.23-.42.69.69,0,0,1-.07-.45A1,1,0,0,1,58.24,48.52ZM53.07,59.45a5,5,0,0,1,.32-1.11,5.43,5.43,0,0,1,.55-1c.22.41.45.87.69,1.4A3.59,3.59,0,0,1,55,60.12a2.15,2.15,0,0,1-.23.94,1.18,1.18,0,0,1-.66.69.52.52,0,0,1-.54,0,.94.94,0,0,1-.31-.35,1.76,1.76,0,0,1-.2-.6A4.32,4.32,0,0,1,53.07,59.45Z"/><path class="cls-5" d="M62.69,62.51A3.52,3.52,0,0,0,64.22,64a3.89,3.89,0,0,0,2,.3,7.86,7.86,0,0,0,2.06-.5,5.51,5.51,0,0,0,1.64-1.08,7.68,7.68,0,0,0,1.65-2.46l.33-.91a10.27,10.27,0,0,0,.45-2.12,15.47,15.47,0,0,0,0-3,13.51,13.51,0,0,0-1-3.73l.49-.87a5.6,5.6,0,0,0,.47-1.26,8.36,8.36,0,0,0,.18-1.12,5.7,5.7,0,0,0,0-1.09A4.21,4.21,0,0,0,72,44.38a3.14,3.14,0,0,0-1-1,2.92,2.92,0,0,0-1.26-.44,5.55,5.55,0,0,0-1.41,0,3.85,3.85,0,0,0-2.06,1,6.55,6.55,0,0,0-1.55,2.21,8.41,8.41,0,0,0-.69,3,8.32,8.32,0,0,0,.51,3.37,7.59,7.59,0,0,0-1.31,1.8,10.5,10.5,0,0,0-.89,2.16A9.11,9.11,0,0,0,62,59.44,6.57,6.57,0,0,0,62.69,62.51Zm7-15.81a.4.4,0,0,1,.29-.2.36.36,0,0,1,.33.17,1.2,1.2,0,0,1,.29.67,2.21,2.21,0,0,1-.06.64,3.07,3.07,0,0,1-.26.7l-.19-.34L69.88,48a3.3,3.3,0,0,1-.23-.42.79.79,0,0,1-.1-.45A1,1,0,0,1,69.7,46.7ZM64.77,57.31a4.23,4.23,0,0,1,.3-1.09,4.31,4.31,0,0,1,.52-1c.24.4.48.86.74,1.39a3.5,3.5,0,0,1,.39,1.4,1.87,1.87,0,0,1-.21.92,1.07,1.07,0,0,1-.64.66.55.55,0,0,1-.55,0,1.1,1.1,0,0,1-.33-.35,1.93,1.93,0,0,1-.21-.59A4.18,4.18,0,0,1,64.77,57.31Z"/><path class="cls-5" d="M93.69,35.11c-.08-.29-.15-.55-.22-.78s-.14-.5-.24-.8a2.62,2.62,0,0,1-.76.52,5.6,5.6,0,0,1-.85.31,8.79,8.79,0,0,1-1,.22c-2.25.17-4.5.37-6.75.58a4.83,4.83,0,0,0-1.69.45,6,6,0,0,0-1.21.77,4.83,4.83,0,0,0-1,1c.39,1.45.79,2.91,1.19,4.36a4.16,4.16,0,0,1,1.24-.87,3.35,3.35,0,0,1,1.27-.22q-.42,2.4-.85,5.61a52.18,52.18,0,0,0-.39,7.31,16,16,0,0,0,.31,3.1,9,9,0,0,0,.76,2.17,5,5,0,0,0,1,1.42,4.94,4.94,0,0,0,1.21.83,5.14,5.14,0,0,0,3.26.32,4,4,0,0,0,1.54-.68,5.84,5.84,0,0,0,1.2-1.35,6.51,6.51,0,0,0,.86-2.48,6.64,6.64,0,0,0,0-1.94,5.33,5.33,0,0,0-.55-1.76,4.62,4.62,0,0,0-1.06-1.37,3.37,3.37,0,0,0-1.53-.77c0-.9,0-1.93.07-3.08.06-1,.17-2.15.32-3.51s.39-2.88.7-4.54a8.39,8.39,0,0,0,1.74-.37,7,7,0,0,0,1.24-.54,6.06,6.06,0,0,0,1-.68L93.93,36C93.85,35.69,93.77,35.39,93.69,35.11Zm-3.4,18.43a2.7,2.7,0,0,1,.6.65,1.92,1.92,0,0,1,.25,1.12,1.78,1.78,0,0,1-.24.86.56.56,0,0,1-.61.26c-.22,0-.38-.21-.5-.55a6.33,6.33,0,0,1-.24-1.12,12.28,12.28,0,0,1-.12-1.59A2,2,0,0,1,90.29,53.54Z"/><path class="cls-5" d="M101,55.08c-.11-1.14-.21-2.4-.3-3.77s-.11-2.74-.07-4.1a3,3,0,0,1,.33-1,.53.53,0,0,1,.64-.3.62.62,0,0,1,.47.44,2.3,2.3,0,0,1,.13.74,7.83,7.83,0,0,1-.07,1,21.43,21.43,0,0,0,0,5.57,10.71,10.71,0,0,0,.48,2,5.66,5.66,0,0,0,.91,1.7A3.85,3.85,0,0,0,105,58.55a4.08,4.08,0,0,0,2.1.3l1.27-.13a5,5,0,0,0,1.85-.66,6.75,6.75,0,0,0,1.92-1.73,5.51,5.51,0,0,0,.6-.95,6.13,6.13,0,0,0,1.38,1.82,4.31,4.31,0,0,0,2.39,1,6.36,6.36,0,0,0,2,0,5.9,5.9,0,0,0,1.6-.53,5.09,5.09,0,0,0,1.24-.89,7.12,7.12,0,0,0,.92-1.08l.06-.1c.13.69.29,1.38.46,2.05,2-.1,3.94-.2,5.91-.28-.25-1.2-.49-2.43-.72-3.7-.18-1.09-.36-2.3-.52-3.62s-.28-2.62-.33-3.92a2.5,2.5,0,0,1,.27-.9.53.53,0,0,1,.62-.3.73.73,0,0,1,.51.46,2.44,2.44,0,0,1,.18.73,5.4,5.4,0,0,1,0,1,19.75,19.75,0,0,0,.39,5.32,10.57,10.57,0,0,0,.61,1.93,6.73,6.73,0,0,0,1,1.65,4.48,4.48,0,0,0,1.53,1.15,4.61,4.61,0,0,0,2.14.38l.62,0a5.55,5.55,0,0,0,1-.15,6.43,6.43,0,0,0,1.26-.45,5.09,5.09,0,0,0,1.31-.91,5.64,5.64,0,0,0,.9-1.1q.28,1.09.6,2.07l6.37-.12a12.59,12.59,0,0,1-.68-1.78c-.19-.56-.39-1.25-.6-2.08s-.4-1.75-.56-2.8q-.07-.64.15-.81a.79.79,0,0,1,.57-.13.63.63,0,0,1,.5.32,2.66,2.66,0,0,1,.25.65,4.07,4.07,0,0,1,.11,1,9.49,9.49,0,0,0,.78,3,6.59,6.59,0,0,0,.63,1.08,4,4,0,0,0,.94.95,4.61,4.61,0,0,0,1.29.66,4.9,4.9,0,0,0,1.69.24c.27,0,.69,0,1.24-.09a5.12,5.12,0,0,0,1.77-.55A5.61,5.61,0,0,0,156.34,55a4.13,4.13,0,0,0,.51-.79,7.08,7.08,0,0,0,1.55,1.72A5.45,5.45,0,0,0,160.91,57a7,7,0,0,0,2,.09,5.4,5.4,0,0,0,1.56-.4,3.86,3.86,0,0,0,1.15-.74,5.47,5.47,0,0,0,.82-.94.41.41,0,0,1,.05-.09c.2.64.43,1.28.66,1.9l5.9.08c-.37-1.11-.74-2.25-1.1-3.43-.3-1-.6-2.13-.9-3.36s-.55-2.43-.74-3.64a1.73,1.73,0,0,1,.17-.81.46.46,0,0,1,.59-.24.9.9,0,0,1,.56.45,2.68,2.68,0,0,1,.26.69,6,6,0,0,1,.09.9,18.13,18.13,0,0,0,.95,4.93,10.34,10.34,0,0,0,.81,1.8,7.34,7.34,0,0,0,1.2,1.57,5.37,5.37,0,0,0,3.82,1.59h.61a5.48,5.48,0,0,0,1-.08,6.44,6.44,0,0,0,1.21-.35,4.19,4.19,0,0,0,1.21-.77,4.47,4.47,0,0,0,1-1.34,6.15,6.15,0,0,0,.59-2.09l-1.69-1.57a2.57,2.57,0,0,1-.3.71,3.29,3.29,0,0,1-.72.91,2.16,2.16,0,0,1-1.06.52,1.68,1.68,0,0,1-1.37-.51,3.23,3.23,0,0,1-.94-1.43,10.54,10.54,0,0,1-.46-1.84,13.62,13.62,0,0,1-.18-2.26,9.74,9.74,0,0,0-.31-1.86,8.36,8.36,0,0,0-.56-1.43,4.78,4.78,0,0,0-.72-1,5.84,5.84,0,0,0-.79-.73,4.3,4.3,0,0,0-3.3-.86,2.77,2.77,0,0,0-1,.32,2.7,2.7,0,0,0-.75.65,7.36,7.36,0,0,0-.66.91,3.5,3.5,0,0,1-.11-.61c0-.21-.06-.43-.08-.64s0-.45,0-.68L163.69,41c0,.42.09.89.15,1.39s.14,1,.23,1.55.19,1.22.31,1.89c.2,1.17.45,2.39.72,3.65.13.6.28,1.24.44,1.91a1.78,1.78,0,0,1-.45.64,1.87,1.87,0,0,1-1,.47,2.1,2.1,0,0,1-1.16-.18,2.32,2.32,0,0,1-.92-.94,7,7,0,0,1-.63-1.51,13.69,13.69,0,0,1-.39-1.85c-.1-.67-.17-1.33-.22-2a45.17,45.17,0,0,1,0-5.09q-2.89-.1-5.79-.18a34.28,34.28,0,0,0,0,7.6,20.75,20.75,0,0,0,.56,2.91v0a3,3,0,0,1-.52.76,1.84,1.84,0,0,1-1,.57,1.66,1.66,0,0,1-1.34-.4,1.49,1.49,0,0,1-.43-.5,4,4,0,0,1-.27-.6,3.57,3.57,0,0,1-.17-.7c-.07-.5-.14-.92-.2-1.28a5.64,5.64,0,0,0-.27-.95,2.8,2.8,0,0,0-.43-.72,4,4,0,0,0-.67-.61,2,2,0,0,0,.29-.49,5.48,5.48,0,0,0,.27-.81,5.39,5.39,0,0,0,.13-1.06,7,7,0,0,0-.07-1.27,4.61,4.61,0,0,0-.23-.88,4.13,4.13,0,0,0-.58-1.09,4.08,4.08,0,0,0-1-1,3.13,3.13,0,0,0-1.52-.52,5.3,5.3,0,0,0-2.52.35,3.7,3.7,0,0,0-1.76,1.54c-.14-1.61-.23-3.2-.26-4.76s0-3.07,0-4.56c-1.94,0-3.87-.09-5.81-.12a29.9,29.9,0,0,0-.17,3.23c0,1.06,0,2.37.1,3.94s.24,3.36.5,5.38c.18,1.47.4,2.94.64,4.38.11.67.24,1.37.37,2.08l0,0a4.76,4.76,0,0,1-.82,1,2.69,2.69,0,0,1-1.14.63,1.39,1.39,0,0,1-1.32-.48,2.9,2.9,0,0,1-.78-1.51,11.4,11.4,0,0,1-.25-2,15.87,15.87,0,0,1,.08-2.46,9.71,9.71,0,0,0-.1-2A7.09,7.09,0,0,0,134,43a4.49,4.49,0,0,0-.6-1.09,4.21,4.21,0,0,0-.71-.74,3.71,3.71,0,0,0-2-.82,5,5,0,0,0-1.26.09,3,3,0,0,0-1,.42,3.29,3.29,0,0,0-.84.75,9.86,9.86,0,0,0-.77,1,4.4,4.4,0,0,1,0-.65c0-.24,0-.47,0-.69s0-.49,0-.74l-5.72.11c0,.46,0,1,0,1.5s0,1,0,1.66,0,1.31.09,2c.08,1.26.18,2.57.31,3.93.06.64.14,1.33.23,2.06a2.64,2.64,0,0,1-.53.72,2.12,2.12,0,0,1-1,.57,1.82,1.82,0,0,1-1.14-.11,1.94,1.94,0,0,1-.81-1,6.29,6.29,0,0,1-.46-1.6,16.82,16.82,0,0,1-.19-2c0-.72,0-1.44,0-2.17a51.62,51.62,0,0,1,.56-5.52c-1.93.06-3.86.13-5.78.21a40.82,40.82,0,0,0-.83,8.24,20.73,20.73,0,0,0,.21,3l0,.09a4.9,4.9,0,0,1-.83,1.14,2.22,2.22,0,0,1-1.15.66,1.4,1.4,0,0,1-1.32-.57,2.65,2.65,0,0,1-.67-1.57,12.76,12.76,0,0,1-.1-2.06,20.9,20.9,0,0,1,.22-2.58,12.49,12.49,0,0,0,0-2.08,6.76,6.76,0,0,0-.29-1.57,4.41,4.41,0,0,0-.52-1.11,4.08,4.08,0,0,0-.65-.75,3.37,3.37,0,0,0-1.93-.79,4.43,4.43,0,0,0-1.26.16,3.23,3.23,0,0,0-1,.48,4.54,4.54,0,0,0-.89.82c-.27.34-.55.71-.83,1.13,0-.54,0-1.2.11-2s.15-1.65.27-2.59.3-1.93.51-3,.46-2.12.76-3.23q-2.9.15-5.78.33a32.92,32.92,0,0,0-.74,3.53c-.2,1.19-.39,2.65-.56,4.41s-.27,3.81-.3,6.16c0,1.35,0,2.73,0,4.14,0,1.2.11,2.53.22,4s.29,2.84.53,4.19l5.88-.57C101.3,57.69,101.14,56.4,101,55.08ZM144,44.76a1.43,1.43,0,0,1,.53-.46,1.14,1.14,0,0,1,.79-.09.92.92,0,0,1,.61.63,1.4,1.4,0,0,1,.12.63,1,1,0,0,1-.12.46.82.82,0,0,1-.25.27,1.58,1.58,0,0,1-.27.13,1.84,1.84,0,0,1-.51.05,1.63,1.63,0,0,1-.46-.09,4.49,4.49,0,0,1-.47-.13c0-.37-.1-.74-.16-1.11Z"/><path class="cls-5" d="M113.39,36.64A5.69,5.69,0,0,0,114.2,38a3.51,3.51,0,0,0,1.08.9,2.36,2.36,0,0,0,1.24.31,2.1,2.1,0,0,0,1.14-.38,3,3,0,0,0,.86-1,4.25,4.25,0,0,0,.5-1.39,5.65,5.65,0,0,0,0-1.7,6.06,6.06,0,0,0-.44-1.66,5.3,5.3,0,0,0-.82-1.37,3.8,3.8,0,0,0-1.06-.92,2.29,2.29,0,0,0-1.2-.31,2,2,0,0,0-1.14.36,3,3,0,0,0-.85,1,4.46,4.46,0,0,0-.5,1.4,5.21,5.21,0,0,0-.06,1.68A6.12,6.12,0,0,0,113.39,36.64Z"/><path class="cls-5" d="M155.52,36.8a6.19,6.19,0,0,0,1,1.33,4.52,4.52,0,0,0,1.17.91,2.93,2.93,0,0,0,1.29.37,1.94,1.94,0,0,0,1.1-.28,2,2,0,0,0,.77-.84,3.25,3.25,0,0,0,.34-1.26,5,5,0,0,0-.15-1.59,6.11,6.11,0,0,0-.62-1.58,6.59,6.59,0,0,0-1-1.33,5,5,0,0,0-1.17-.93,2.74,2.74,0,0,0-1.24-.38,1.75,1.75,0,0,0-1.1.26,2.19,2.19,0,0,0-.75.84,3.61,3.61,0,0,0-.36,1.28,5.45,5.45,0,0,0,.12,1.58A6.3,6.3,0,0,0,155.52,36.8Z"/><path class="cls-5" d="M46.36,97.68a2.35,2.35,0,0,1-.44.64.75.75,0,0,1-.63.26.58.58,0,0,1-.49-.43,3.56,3.56,0,0,1-.18-1.05,10.88,10.88,0,0,1,0-1.48c.06-.56.12-1.12.2-1.68.2-1.34.49-2.84.88-4.5a19.66,19.66,0,0,0,.48-3.31,10.88,10.88,0,0,0-.1-2.37,5,5,0,0,0-.52-1.61,3.56,3.56,0,0,0-.78-1,3.24,3.24,0,0,0-2.57-.7,6.4,6.4,0,0,0-3.31,1.6,19,19,0,0,0-2.76,3.35,3.33,3.33,0,0,0-.94-1.65,3.07,3.07,0,0,0-1.18-.66A3.15,3.15,0,0,0,32.62,83a6.25,6.25,0,0,0-1.82.65,8.49,8.49,0,0,0-1.57,1.12,12.44,12.44,0,0,0-1.44,1.58c-.46.61-.94,1.3-1.43,2.07,0-.32.08-.69.14-1.1s.15-.79.23-1.16l.3-1.26c-2.69.82-5.37,1.66-8,2.54-.16.79-.33,1.64-.5,2.56s-.34,1.76-.51,2.81-.37,2.22-.56,3.47c-.34,2.24-.66,4.52-.93,6.85q-.34,3-.61,6.51t-.21,6.78q4.2-1.54,8.43-3,0-3.25.21-6.65c.05-1,.11-2,.19-3.08s.17-2.2.27-3.34.23-2.28.36-3.43.3-2.26.49-3.34a3.64,3.64,0,0,1,.63-1.3A.86.86,0,0,1,27,92c.24.06.39.29.43.69a6.11,6.11,0,0,1,0,1.29c0,.54-.12,1.15-.24,1.84-.3,1.59-.55,3.3-.76,5.13-.18,1.56-.31,3.36-.4,5.41a55.76,55.76,0,0,0,.1,6.43q4.29-1.43,8.59-2.76-.08-3,0-6,.06-2.61.33-5.79a59.54,59.54,0,0,1,.84-6.13c0-.22.1-.5.16-.84s.15-.67.23-1a4.25,4.25,0,0,1,.32-.82.6.6,0,0,1,.44-.37c.26,0,.43.14.48.48a6.47,6.47,0,0,1,0,1.19c-.05.51-.14,1.09-.27,1.75a40.66,40.66,0,0,0-1,8.8,15.77,15.77,0,0,0,.3,3,6.64,6.64,0,0,0,1,2.46,3.51,3.51,0,0,0,1.85,1.4,5.14,5.14,0,0,0,3-.13,7.21,7.21,0,0,0,3-1.9,10.21,10.21,0,0,0,1.13-1.42,10.66,10.66,0,0,0,1-1.94,16.71,16.71,0,0,0,.79-2.57,19.25,19.25,0,0,0,.42-3.29l-2-.19A5.63,5.63,0,0,1,46.36,97.68Z"/><path class="cls-5" d="M62.27,88.5a8.2,8.2,0,0,0-1.1-2.44,4.69,4.69,0,0,0-1.67-1.51,3.68,3.68,0,0,0-2.19-.36,7.13,7.13,0,0,0-3.06,1.25A12.84,12.84,0,0,0,53,86.51,10.67,10.67,0,0,0,51.75,88a13.73,13.73,0,0,0-1.13,2.1,17.79,17.79,0,0,0-.89,2.75,23.69,23.69,0,0,0-.46,3.29,18.65,18.65,0,0,0,0,2.61,10.94,10.94,0,0,0,.35,2,7.76,7.76,0,0,0,.56,1.5,4.53,4.53,0,0,0,1.94,2.08,3.32,3.32,0,0,0,1.31.41,6.15,6.15,0,0,0,1.81,0,7.85,7.85,0,0,0,2-.62,7.2,7.2,0,0,0,2-1.35A8.67,8.67,0,0,0,61,100.53a13.83,13.83,0,0,0,1.08-2.82,19.22,19.22,0,0,0,.57-3.06,20.32,20.32,0,0,0,.1-3A12.87,12.87,0,0,0,62.27,88.5Zm-3.05,7.62a6.81,6.81,0,0,1-.7,1.86,1.66,1.66,0,0,1-1.33.94.82.82,0,0,1-.78-.38,3.24,3.24,0,0,1-.47-1.27,11.06,11.06,0,0,1-.06-2.69,8.34,8.34,0,0,1,.48-2.67,3.92,3.92,0,0,1,.81-1.28,1.4,1.4,0,0,1,1-.43,1.12,1.12,0,0,1,.81.61,4.42,4.42,0,0,1,.38,1.13,8.19,8.19,0,0,1,.1,1.53A12.86,12.86,0,0,1,59.22,96.12Z"/><path class="cls-5" d="M87.28,93a2.65,2.65,0,0,1-1.08.52,1.83,1.83,0,0,1-1.08-.14,3.28,3.28,0,0,1-.8-.65,2.73,2.73,0,0,1-.66-1.44,12.56,12.56,0,0,0,1.4-.63,8.28,8.28,0,0,0,1.63-1.09A8.63,8.63,0,0,0,88.15,88a5.82,5.82,0,0,0,.9-2.27,8.13,8.13,0,0,0,0-2.14,7.57,7.57,0,0,0-.45-1.87,4.71,4.71,0,0,0-1.15-1.77A3.46,3.46,0,0,0,85.27,79a5.07,5.07,0,0,0-2.59.62,9,9,0,0,0-2.51,2.07,11.55,11.55,0,0,0-2,3.45,13.55,13.55,0,0,0-.6,2.13,16.58,16.58,0,0,0-.31,2.5,17.88,17.88,0,0,0,.08,2.53,4.17,4.17,0,0,1-.64,1.11,3,3,0,0,1-.89.71,1.68,1.68,0,0,1-1,.16,1.83,1.83,0,0,1-1.21-.77A3.77,3.77,0,0,1,73,91.92a10.17,10.17,0,0,1-.09-2.11,19.19,19.19,0,0,1,.26-2.35,43.83,43.83,0,0,1,1.49-6.2c-1.77.31-3.53.64-5.29,1v0a3.5,3.5,0,0,0-1.16-1.37,2.09,2.09,0,0,0-1.6-.31,3,3,0,0,0-1.27.62,5,5,0,0,0-1,1.22,6.62,6.62,0,0,0-.72,1.64,7.16,7.16,0,0,0-.28,1.9,5.5,5.5,0,0,0,.5,2.53,2.67,2.67,0,0,0,1.41,1.4c-.15.86-.29,1.59-.41,2.21a15.15,15.15,0,0,1-.39,1.53,9.72,9.72,0,0,1-.4,1.15c.43.55.87,1.09,1.31,1.64.31-1,.57-2,.78-3s.4-2,.55-3.13L68,90a22.41,22.41,0,0,0-.26,5.71,10.84,10.84,0,0,0,.4,2A4.94,4.94,0,0,0,69,99.43a3.46,3.46,0,0,0,1.44,1.07,4.1,4.1,0,0,0,2.14.16,4.57,4.57,0,0,0,1.63-.5,7.68,7.68,0,0,0,1.35-.93,7.49,7.49,0,0,0,1.09-1.17,11.84,11.84,0,0,0,1.49-2.62A7.17,7.17,0,0,0,79,96.83a4.64,4.64,0,0,0,1.75,1.35,4.69,4.69,0,0,0,2,.47,8.16,8.16,0,0,0,2-.21,8.53,8.53,0,0,0,1.82-.66,5.43,5.43,0,0,0,1.32-.91,6.58,6.58,0,0,0,1.13-1.17,9.2,9.2,0,0,0,.82-1.25A12.55,12.55,0,0,0,90.51,93l-2-1.52A4.91,4.91,0,0,1,87.28,93Zm-3.79-5.57a4.92,4.92,0,0,1,.35-1.23,1.93,1.93,0,0,1,.84-.9.8.8,0,0,1,1,.11,1.19,1.19,0,0,1,.38,1,2.27,2.27,0,0,1-.46,1.32,3.08,3.08,0,0,1-.88.76,4.37,4.37,0,0,1-1.24.47A8.37,8.37,0,0,1,83.49,87.46Z"/><path class="cls-5" d="M121.33,76.09a16.13,16.13,0,0,0-.54-2.7,9.34,9.34,0,0,0-1-2.26,6.11,6.11,0,0,0-1.49-1.66,4.33,4.33,0,0,0-2-.86,4.53,4.53,0,0,0-1,0,4.85,4.85,0,0,0-1.12.23,4.6,4.6,0,0,0-1,.5,2.48,2.48,0,0,0-.78.8,3,3,0,0,1,0-.38c0-.21,0-.43,0-.67s0-.47,0-.68a3.06,3.06,0,0,0,0-.38q-3.74.31-7.47.69c.05,1.14.1,2.53.12,4.15s0,3.36,0,5.18-.16,3.67-.32,5.51a46.94,46.94,0,0,1-.7,5.1,4,4,0,0,0-1-.26,4.12,4.12,0,0,0-.94-.07,2.54,2.54,0,0,0-1,.22,2.88,2.88,0,0,0-1.46,1.15,3.56,3.56,0,0,0-.46,1.45,5.22,5.22,0,0,0,.19,1.76,3.33,3.33,0,0,0,.88,1.44,4.32,4.32,0,0,0,1.41.93,5,5,0,0,0,2.39.25,9.71,9.71,0,0,0,2.85-.89,8.17,8.17,0,0,0,2.54-1.92,8.78,8.78,0,0,0,.91.51,9.62,9.62,0,0,0,1.35.57,8.23,8.23,0,0,0,1.66.39,6.73,6.73,0,0,0,1.85,0,6.64,6.64,0,0,0,1.93-.58,6.55,6.55,0,0,0,1.87-1.35,7.35,7.35,0,0,0,1.71-3,20.89,20.89,0,0,0,.85-4.18,33.3,33.3,0,0,0,.16-4.6C121.59,78.87,121.48,77.42,121.33,76.09Zm-18.46,14.6a1.37,1.37,0,0,1-.46.17,1.42,1.42,0,0,1-.46,0,.34.34,0,0,1-.14-.09.35.35,0,0,1-.16-.3.54.54,0,0,1,.16-.45.5.5,0,0,1,.21-.1,1.51,1.51,0,0,1,.52,0l.44.1.42.19A2,2,0,0,1,102.87,90.69Zm11.81-9.87a21.12,21.12,0,0,1-.36,4.22,7.69,7.69,0,0,1-.86,2.38,2,2,0,0,1-1.09,1,1.5,1.5,0,0,1-1.05-.06c.1-.36.22-.93.37-1.69s.28-1.72.4-2.87.22-2.5.29-4,.09-3.24.06-5.14a2.14,2.14,0,0,1,.92.1,1.39,1.39,0,0,1,.72.78,6.72,6.72,0,0,1,.46,1.9A25.21,25.21,0,0,1,114.68,80.82Z"/><path class="cls-5" d="M142.82,65.22a4.23,4.23,0,0,0-1.2-.86,2.68,2.68,0,0,0-1.31-.28,2.29,2.29,0,0,0-1.23.37,2.93,2.93,0,0,0-.9,1,4,4,0,0,0-.5,1.36,4.88,4.88,0,0,0,0,1.62,5.37,5.37,0,0,0,.52,1.63,4.74,4.74,0,0,0,.93,1.29,3.73,3.73,0,0,0,1.2.84,2.8,2.8,0,0,0,1.36.26,2.36,2.36,0,0,0,1.23-.39,2.92,2.92,0,0,0,.91-.94,4,4,0,0,0,.49-1.35,4.72,4.72,0,0,0,0-1.63,5.27,5.27,0,0,0-.54-1.58A5.2,5.2,0,0,0,142.82,65.22Z"/><path class="cls-5" d="M183.36,64.7a2.91,2.91,0,0,0-.36,1.21,4,4,0,0,0,.16,1.47,5.3,5.3,0,0,0,.68,1.49,5.52,5.52,0,0,0,1,1.2,4.8,4.8,0,0,0,1.29.81,3.39,3.39,0,0,0,1.38.29,2.31,2.31,0,0,0,1.19-.3,2.25,2.25,0,0,0,.81-.81,2.68,2.68,0,0,0,.35-1.19,3.73,3.73,0,0,0-.19-1.47A5.21,5.21,0,0,0,189,66a6.12,6.12,0,0,0-1.06-1.2,5.28,5.28,0,0,0-1.28-.83,3.32,3.32,0,0,0-1.34-.32,2.26,2.26,0,0,0-1.19.29A2.22,2.22,0,0,0,183.36,64.7Z"/><path class="cls-5" d="M213.15,80.82a2.78,2.78,0,0,1-.32.67,3.6,3.6,0,0,1-.76.87,2.64,2.64,0,0,1-1.13.54,2,2,0,0,1-1.46-.39,2.74,2.74,0,0,1-1-1.25A7.37,7.37,0,0,1,208,79.6a9.72,9.72,0,0,1-.21-2.06,7.2,7.2,0,0,0-.36-1.68,6.09,6.09,0,0,0-.6-1.28,4.17,4.17,0,0,0-.78-.92,4.65,4.65,0,0,0-.85-.63,5.28,5.28,0,0,0-2.21-.71,6.24,6.24,0,0,0-1.34.07,3.67,3.67,0,0,0-1,.34,3.28,3.28,0,0,0-.8.63,8.2,8.2,0,0,0-.7.88,4.23,4.23,0,0,1-.12-.56l-.09-.58c0-.21,0-.42,0-.63l-6.13,0c.05.39.11.82.18,1.28s.16.88.26,1.42.23,1.12.36,1.74c.24,1.08.52,2.2.83,3.35.15.54.32,1.13.5,1.74a1.77,1.77,0,0,1-.47.61,2.09,2.09,0,0,1-1,.49,2.58,2.58,0,0,1-1.25-.1,2.31,2.31,0,0,1-1-.83,5.68,5.68,0,0,1-.7-1.37,11.06,11.06,0,0,1-.45-1.7c-.12-.61-.2-1.23-.26-1.85a34.53,34.53,0,0,1-.11-4.73l-6.23.07a27.87,27.87,0,0,0,.18,7.09,16.73,16.73,0,0,0,.65,2.69v0a3.78,3.78,0,0,1-.55.73,2.22,2.22,0,0,1-1,.58,2,2,0,0,1-1.44-.31,1.35,1.35,0,0,1-.47-.45,6.14,6.14,0,0,1-.31-.54,3.28,3.28,0,0,1-.19-.66c-.09-.45-.17-.85-.24-1.18a4,4,0,0,0-.31-.87,2.34,2.34,0,0,0-.48-.66,3.64,3.64,0,0,0-.73-.54,1.66,1.66,0,0,0,.3-.48,3.36,3.36,0,0,0,.27-.76,4.28,4.28,0,0,0,.12-1,5.57,5.57,0,0,0-.1-1.19,3.82,3.82,0,0,0-.26-.81,3.63,3.63,0,0,0-.65-1A4.12,4.12,0,0,0,177,72.4a3.59,3.59,0,0,0-1.65-.43,6.52,6.52,0,0,0-2.71.42,4,4,0,0,0-1.87,1.52c-.19-1.52-.31-3-.39-4.48s-.09-2.9,0-4.3c-2.1,0-4.21,0-6.31.05a26.24,26.24,0,0,0-.1,3.07q0,1.5.21,3.72c.12,1.48.34,3.17.68,5.07.24,1.39.5,2.76.8,4.12.14.63.3,1.28.46,1.94l0,0a4.57,4.57,0,0,1-.86,1,3,3,0,0,1-1.21.64,1.6,1.6,0,0,1-1.43-.4,2.48,2.48,0,0,1-.88-1.4,8.64,8.64,0,0,1-.33-1.87,14,14,0,0,1,0-2.33,8.42,8.42,0,0,0-.16-1.9,6.68,6.68,0,0,0-.46-1.43,4.32,4.32,0,0,0-.68-1,5.36,5.36,0,0,0-.8-.68,4.3,4.3,0,0,0-2.16-.71,5.66,5.66,0,0,0-1.36.13,3.91,3.91,0,0,0-1.08.42,3.85,3.85,0,0,0-.88.74,11.36,11.36,0,0,0-.81,1,5.86,5.86,0,0,1-.06-.63c0-.22,0-.44,0-.65s0-.48,0-.71c-2.07.08-4.13.18-6.2.28,0,.43,0,.91,0,1.43s.06,1,.11,1.59.1,1.25.16,1.94c.13,1.21.28,2.45.47,3.74.08.61.19,1.27.31,2a2.41,2.41,0,0,1-.54.71,2.48,2.48,0,0,1-1.09.58,2.2,2.2,0,0,1-1.24-.07,1.91,1.91,0,0,1-.91-.89,5.65,5.65,0,0,1-.55-1.52,13,13,0,0,1-.27-1.9c0-.68-.07-1.38-.06-2.08a43.82,43.82,0,0,1,.42-5.3l-6.28.36a35,35,0,0,0-.6,8A18.73,18.73,0,0,0,137,85a2,2,0,0,1-.3.42,2.1,2.1,0,0,1-.83.55,1.78,1.78,0,0,1-1,.06,2.52,2.52,0,0,1-1.34-.78,4.16,4.16,0,0,1-.78-1.44,8.26,8.26,0,0,1-.34-1.89,16,16,0,0,1,0-2.08,32.26,32.26,0,0,1,.82-5.41l-5.36.38v0a4.53,4.53,0,0,0-1.36-1.33,2.74,2.74,0,0,0-1.69-.44,2.54,2.54,0,0,0-1.25.44,3.47,3.47,0,0,0-.94,1,4.46,4.46,0,0,0-.55,1.41,5.52,5.52,0,0,0,.74,4,3.63,3.63,0,0,0,1.63,1.38c0,.76-.11,1.4-.17,1.94a12.05,12.05,0,0,1-.22,1.34,6.2,6.2,0,0,1-.3,1c.52.53,1,1.06,1.55,1.58.21-.88.36-1.75.48-2.61a25.92,25.92,0,0,0,.2-2.76l1.39-.12a17.29,17.29,0,0,0,.39,5.08,10.12,10.12,0,0,0,.64,1.85,5.72,5.72,0,0,0,1.08,1.56,4.78,4.78,0,0,0,1.61,1.07,5.22,5.22,0,0,0,2.24.32,4.64,4.64,0,0,0,1.63-.31,5.93,5.93,0,0,0,1.29-.71,5.26,5.26,0,0,0,1-1,6.34,6.34,0,0,0,.72-1.08c.08-.13.14-.27.21-.41a6.07,6.07,0,0,0,1.55,1.68,5,5,0,0,0,2.62.88,7.52,7.52,0,0,0,2.16-.11,7.09,7.09,0,0,0,1.72-.57,5.59,5.59,0,0,0,1.31-.89,6.69,6.69,0,0,0,1-1.07s0-.07.07-.1c.16.66.35,1.3.55,1.93l6.37-.5c-.31-1.12-.6-2.29-.88-3.48-.24-1-.46-2.17-.68-3.42s-.37-2.49-.47-3.72a2,2,0,0,1,.27-.86.57.57,0,0,1,.66-.31.74.74,0,0,1,.56.42,2.05,2.05,0,0,1,.22.69,5.62,5.62,0,0,1,0,.93,16.65,16.65,0,0,0,.57,5,9.4,9.4,0,0,0,.72,1.8,5.59,5.59,0,0,0,1.15,1.53,4.66,4.66,0,0,0,1.67,1,5.8,5.8,0,0,0,2.31.26l.67,0a6.57,6.57,0,0,0,1.1-.18,9.23,9.23,0,0,0,1.35-.48,6,6,0,0,0,1.38-.92,5.88,5.88,0,0,0,.94-1.08c.22.68.45,1.32.7,1.92l6.83-.41a11,11,0,0,1-.78-1.64q-.31-.77-.69-1.92a26.46,26.46,0,0,1-.66-2.6c-.06-.41,0-.66.14-.77a1,1,0,0,1,.61-.15.64.64,0,0,1,.54.28,2.38,2.38,0,0,1,.29.6,3.11,3.11,0,0,1,.14.91,8,8,0,0,0,.9,2.79,5.78,5.78,0,0,0,.7,1,4.11,4.11,0,0,0,1,.84,5.53,5.53,0,0,0,1.4.56A6.47,6.47,0,0,0,180,88q.44,0,1.32-.15a6.32,6.32,0,0,0,1.88-.61,6,6,0,0,0,1.87-1.47,4.05,4.05,0,0,0,.54-.77,6.59,6.59,0,0,0,1.68,1.52,6,6,0,0,0,2.7.87,8.45,8.45,0,0,0,2.15,0,6.79,6.79,0,0,0,1.66-.45,4.74,4.74,0,0,0,1.22-.75,6,6,0,0,0,.85-.91l.05-.09c.23.59.48,1.16.74,1.72l6.28-.27c-.41-1-.82-2-1.21-3.09-.33-.91-.67-1.92-1-3s-.61-2.22-.83-3.32a1.47,1.47,0,0,1,.18-.76.53.53,0,0,1,.62-.25.94.94,0,0,1,.61.4,2,2,0,0,1,.28.62,4,4,0,0,1,.11.82,14.24,14.24,0,0,0,1.07,4.47,8.2,8.2,0,0,0,.89,1.61,6.38,6.38,0,0,0,1.28,1.37,5.65,5.65,0,0,0,1.77.94,6.43,6.43,0,0,0,2.31.28l.66,0a8.09,8.09,0,0,0,1.07-.14,6.53,6.53,0,0,0,1.29-.4,5,5,0,0,0,1.28-.77,4.56,4.56,0,0,0,1.05-1.29,5.41,5.41,0,0,0,.62-1.93Zm-39.51-3a.75.75,0,0,1-.26.27,2.21,2.21,0,0,1-.29.13,1.75,1.75,0,0,1-.55.06,1.88,1.88,0,0,1-.49-.06l-.51-.1c-.06-.35-.13-.69-.19-1a2.26,2.26,0,0,1,.19-.28,1.54,1.54,0,0,1,.56-.45,1.38,1.38,0,0,1,.85-.12.89.89,0,0,1,.67.56,1.2,1.2,0,0,1,.15.59A1.09,1.09,0,0,1,173.64,77.8Z"/><path class="cls-6" d="M242.6,101.84c0,1.75-8,1.27-17.92-1.08s-17.74-5.31-17.58-6.63,8.17-.83,17.9,1.08S242.62,100.09,242.6,101.84Z"/><path class="cls-7" d="M239.54,36.64l.64-.77c-3.71-8.2-11.06-9.63-16.86-4.43l-.22.2.27.92C229,28,235.82,29.26,239.54,36.64Z"/><path class="cls-8" d="M224.06,31.77l-.19.17q2.43,7.2,4.79,14.8,5.63-5.13,10.83-10.89C236.05,28.9,229.29,27.5,224.06,31.77Z"/><path class="cls-9" d="M228.55,30a5.54,5.54,0,0,0-2.66.93q1.5,7.68,2.81,15.57c.08-.16.16-.32.23-.48Q228.9,38.08,228.55,30Z"/><path class="cls-9" d="M234.31,30.85a3.54,3.54,0,0,0-2.59-1q-1.12,6.8-2.58,13.33l-.06,1.05Q231.9,37.79,234.31,30.85Z"/><path class="cls-9" d="M239,36.31a5.18,5.18,0,0,0-1.62-2.81,156.27,156.27,0,0,1-8.74,13.24Q234,41.82,239,36.31Z"/><path class="cls-3" d="M232.31,48.8c.39-4.46,3.82-8,3.86-8,.84-.9,1.67-1.81,2.5-2.73L224,40.39h0l-.17,0-.16,0h0l-14.28,2.28,2.38,1.59a9.67,9.67,0,0,1,4.63,6c.38,2-.66,4.13-2.35,6.26-2.86,3.67-4.51,9.39-2.5,14.15,1.14,2.69,3.59,5.44,10.73,6.35.28,3.18,0,12.15-3.36,15.88a5.73,5.73,0,0,1-4.47,2.29l-1,0,0,.36,10.34,2.25.4.09,10.34,2.25c0-.15,0-.29,0-.43l-.94-.37c-1.71-.68-3-2.44-4.09-4.34-2.86-5.23-2.57-14-2.24-17.27,7.16.39,9.69-2.62,10.84-5.73,2-5.5.16-12.73-3-16.54C233.33,53.23,232.12,51.05,232.31,48.8Z"/><path class="cls-10" d="M199.55,39.09q5.26-2.31,10.4-4.82a2.27,2.27,0,0,1,3.36,1c4.43,8.42,9,17.58,13.59,27.63l-1.59.42c-4.47-9.63-8.9-18.43-13.2-26.51-.71-1.48-1.39-1.32-2.52-.78q-4.82,2.26-9.73,4.36C199.76,40,199.66,39.52,199.55,39.09Z"/><path class="cls-11" d="M232.31,48.8c.39-4.46,3.82-8,3.86-8,.84-.9,1.67-1.81,2.5-2.73L224,40.39h0l-.17,0-.16,0h0l-14.28,2.28,2.38,1.59a9.67,9.67,0,0,1,4.63,6c.38,2-.66,4.13-2.35,6.26-2.86,3.67-4.51,9.39-2.5,14.15,1.14,2.69,3.59,5.44,10.73,6.35.28,3.18,0,12.15-3.36,15.88a5.73,5.73,0,0,1-4.47,2.29l-1,0,0,.36,10.34,2.25.4.09,10.34,2.25c0-.15,0-.29,0-.43l-.94-.37c-1.71-.68-3-2.44-4.09-4.34-2.86-5.23-2.57-14-2.24-17.27,7.16.39,9.69-2.62,10.84-5.73,2-5.5.16-12.73-3-16.54C233.33,53.23,232.12,51.05,232.31,48.8Z"/><path class="cls-12" d="M225.74,55.62a.6.6,0,0,1-.63.59l-3.81-.38a.59.59,0,0,1-.51-.67c.14-1.42.28-2.85.41-4.28a.62.62,0,0,1,.61-.6l3.76.24a.61.61,0,0,1,.52.68C226,52.68,225.87,54.15,225.74,55.62Z"/><path class="cls-13" d="M231.74,57a.59.59,0,0,1-.62.6l-3.84-.44a.63.63,0,0,1-.52-.7c.12-1.48.24-3,.35-4.45a.61.61,0,0,1,.61-.61l3.78.3a.66.66,0,0,1,.54.72C232,54,231.85,55.51,231.74,57Z"/><path class="cls-14" d="M223.29,57.43a.65.65,0,0,1-.4.79q-1.84.62-3.72,1.2a.57.57,0,0,1-.71-.42c-.35-1.34-.7-2.67-1.06-4a.65.65,0,0,1,.4-.77c1.22-.43,2.44-.87,3.65-1.32a.54.54,0,0,1,.71.39C222.54,54.67,222.91,56.05,223.29,57.43Z"/><path class="cls-12" d="M228.41,57.52a.64.64,0,0,1-.45.77l-3.79.83a.58.58,0,0,1-.68-.5c-.25-1.42-.5-2.84-.76-4.25a.66.66,0,0,1,.45-.76l3.72-1a.57.57,0,0,1,.68.49C227.86,54.59,228.14,56.05,228.41,57.52Z"/><path class="cls-15" d="M226.53,75.9c13.93,1.3,12.92-13.44,7.59-20a14,14,0,0,1-1-1.37c-2.51-.73-5.14-1.22-6.7-.79-1.8.53-6.05,3.08-9.92,1.47l-.2-.07a11.24,11.24,0,0,1-1.11,1.71c-4.8,6.27-5.89,17.47,8,18.77h0c0,.25,3.22.54,3.28.25Z"/><path class="cls-16" d="M233.11,62.94c-2.29-1-5.24,1.74-7.51,1.61s-3.32-.83-5.13-.46-3.25,1.43-6.21,0A2.54,2.54,0,0,0,212.1,64c-.84,5.28,1.69,10.83,11.07,11.65h0c0,.25,3.22.54,3.28.25h0c8.26.71,11.36-4.11,11.24-9.68C235.65,66.07,234.93,63.77,233.11,62.94Z"/><path class="cls-17" d="M226.54,72.76h0c-.05.29-3.2.07-3.25-.19h0c-7.56-.48-10.68-4.28-11.12-8.46-.79,5.24,1.78,10.72,11.08,11.53h0c0,.25,3.22.54,3.28.25h0c8.26.71,11.36-4.11,11.24-9.68a2.41,2.41,0,0,1-.48-.08C236.32,70.22,233.05,73.16,226.54,72.76Z"/><g class="cls-18"><path class="cls-19" d="M221.09,61.12l-.61.08a9.26,9.26,0,0,0,8.26,10.47h.2c.05-.22.11-.43.16-.65A9.25,9.25,0,0,1,221.09,61.12Z"/><path class="cls-8" d="M228.42,71.08l.18,0q1.08-5.19,2-10.51-4.84.48-9.71.92A9,9,0,0,0,228.42,71.08Z"/><path class="cls-9" d="M225.2,69.58a4.69,4.69,0,0,0,1.88.94q1.8-4.8,3.41-9.84l-.29.17Q227.82,65.36,225.2,69.58Z"/><path class="cls-9" d="M222.16,66.28A3.51,3.51,0,0,0,223.32,68q3-2.73,5.89-5.69l.37-.55Q225.92,64.15,222.16,66.28Z"/><path class="cls-9" d="M221.28,61.5a3.22,3.22,0,0,0,0,2.06q4.69-1.41,9.29-3C227.48,60.91,224.39,61.21,221.28,61.5Z"/></g><path class="cls-17" d="M233.14,54.55c-2.51-.73-5.14-1.22-6.7-.79a18.08,18.08,0,0,0-1.84.71q.38,10.74.25,21.51c.81.06,1.61.06,1.64-.08h0c13.93,1.3,12.92-13.44,7.59-20A14,14,0,0,1,233.14,54.55Z"/><path class="cls-20" d="M231.39,39.31a2.73,2.73,0,0,1-2,3.09A2.32,2.32,0,0,1,226.86,40a2.83,2.83,0,0,1,2-3.08C230.13,36.72,231.25,37.78,231.39,39.31Z"/><path class="cls-21" d="M231.22,38.52a2.67,2.67,0,0,1-2.05,2.7,2.18,2.18,0,0,1-2.32-1.59c0,.14,0,.27,0,.4a2.32,2.32,0,0,0,2.48,2.37,2.73,2.73,0,0,0,2-3.09A3.36,3.36,0,0,0,231.22,38.52Z"/><path class="cls-10" d="M228.75,38.5s2.89-8.3,9.8-11.23l.75.58S232.2,32.11,228.75,38.5Z"/><path class="cls-22" d="M25,65.3h0a5.47,5.47,0,0,0-.81,0,3.08,3.08,0,0,0-.64.15,2.9,2.9,0,0,0-.72.37,5.86,5.86,0,0,0-1.32,1.31l.25.23a2.61,2.61,0,0,1,.72-.42,2.7,2.7,0,0,1,.9-.17,5.68,5.68,0,0,1,.71,0,1.05,1.05,0,0,1,1,1.3,5,5,0,0,1-.68,1.68,3,3,0,0,1-.91.92,2.09,2.09,0,0,1-1.19.39h-.08a1.28,1.28,0,0,1-1-.38,1.57,1.57,0,0,1-.32-.46,1.66,1.66,0,0,1-.14-.88v0l-.33-.06a8.44,8.44,0,0,0-.36,3.3,4.39,4.39,0,0,0,.18.72,1.34,1.34,0,0,0,.37.58,1.27,1.27,0,0,0,.66.3.79.79,0,0,0,.23,0h0a3.92,3.92,0,0,0,1.21-.24h0a8.93,8.93,0,0,0,2.65-1.39A10.89,10.89,0,0,0,28,69.76a1.05,1.05,0,0,1,.88-.47,1.1,1.1,0,0,1,.55.16,3.48,3.48,0,0,0,1.23.4,7.3,7.3,0,0,0,1.75,0,6.74,6.74,0,0,0,1.72-.41A3.8,3.8,0,0,0,35,69l.06,0,.31-1.79-.27.08a6.22,6.22,0,0,1-1.2.24,6.69,6.69,0,0,1-1.79,0A6.14,6.14,0,0,1,30.5,67a1.05,1.05,0,0,1-.6-1.3l.39-1.21c.21-.65.41-1.41.61-2.27-1.4,0-2.8,0-4.19,0-.21.8-.44,1.58-.68,2.33A1.06,1.06,0,0,1,25,65.3Z"/><path class="cls-22" d="M39.61,64.5a5.69,5.69,0,0,0,.68,1.78,2.53,2.53,0,0,0,1,1l0,0a2.37,2.37,0,0,0,1.21.31h0a5.27,5.27,0,0,0,1.52-.22,6.39,6.39,0,0,0,1.44-.62,4.79,4.79,0,0,0,1-.8l.07-.07a6.11,6.11,0,0,0,1-1.07,10.89,10.89,0,0,0,.77-1.21l.24-.46L48.29,63a4.25,4.25,0,0,1-.52.52,3.64,3.64,0,0,1-1.45.78A2.38,2.38,0,0,1,44.64,64l0,0a3.35,3.35,0,0,1-1-.94,3.31,3.31,0,0,1-.58-1.4c-1.22.1-2.45.2-3.68.28v.22A11.36,11.36,0,0,0,39.61,64.5Z"/><path class="cls-22" d="M51.68,64.19a2.16,2.16,0,0,0,1,1,2.37,2.37,0,0,0,1,.2h0l.42,0a6.64,6.64,0,0,0,1.77-.49,5,5,0,0,0,1.36-.95,7.25,7.25,0,0,0,1.44-2.21q.07-.16.33-.87a7,7,0,0,0,.33-1.27c-1.11.19-2.23.36-3.36.54a3.5,3.5,0,0,1-.32,1.25,2.27,2.27,0,0,1-1.23,1.25,1.56,1.56,0,0,1-1.56-.14,2,2,0,0,1-.61-.67,2.93,2.93,0,0,1-.32-1v0a.45.45,0,0,1,0-.11l-.6.08q0,.39,0,.81A5.65,5.65,0,0,0,51.68,64.19Z"/><path class="cls-22" d="M63.49,61.86a2.34,2.34,0,0,0,1,1,2.52,2.52,0,0,0,1.1.23h0a2.11,2.11,0,0,0,.35,0,6.45,6.45,0,0,0,1.77-.42,4.67,4.67,0,0,0,1.33-.89,6.61,6.61,0,0,0,1.38-2.1c0-.1.15-.38.31-.84a9,9,0,0,0,.35-1.56L67.65,58a3.18,3.18,0,0,1-.29,1.21,2.16,2.16,0,0,1-1.26,1.23,1.58,1.58,0,0,1-1.53-.16,2.34,2.34,0,0,1-.61-.65,3,3,0,0,1-.32-.85l-.68.12v.36A5.52,5.52,0,0,0,63.49,61.86Z"/><path class="cls-22" d="M84.33,58.26a3.81,3.81,0,0,0,.83,1.13,3.66,3.66,0,0,0,1,.65,3.6,3.6,0,0,0,1.59.35h0a5.1,5.1,0,0,0,1-.11,2.82,2.82,0,0,0,1.11-.48,4.51,4.51,0,0,0,1-1.1,4.2,4.2,0,0,0,.54-1.32l.1-.38-.34.19a1.64,1.64,0,0,1-1,.17,1.67,1.67,0,0,1-1.36-1.27,7.48,7.48,0,0,1-.29-1.3,13.48,13.48,0,0,1-.12-1.67c-1.56.43-3.17.85-4.83,1.28a12.43,12.43,0,0,0,.25,1.94A7.92,7.92,0,0,0,84.33,58.26Z"/><path class="cls-22" d="M96,55.12c.08,1,.19,2,.33,3l0,.16h.17l3.46-.34h.18l0-.18c-.11-.85-.21-1.74-.31-2.63-.11-1.14-.21-2.42-.3-3.8,0-.26,0-.52,0-.78-1.24.23-2.47.47-3.7.72h0C95.81,52.4,95.88,53.71,96,55.12Z"/><path class="cls-22" d="M130,52.06a9.18,9.18,0,0,0,.55,1.73,5.57,5.57,0,0,0,.85,1.39,3.29,3.29,0,0,0,1.17.87,3.64,3.64,0,0,0,1.66.28l.62,0a4.34,4.34,0,0,0,.83-.12,4.74,4.74,0,0,0,1-.38,3.9,3.9,0,0,0,1-.72,4.94,4.94,0,0,0,.74-.9,1.05,1.05,0,0,1,1.06-.47,1,1,0,0,1,.85.78c.1.39.21.77.31,1.13l0,.13h.13l3.68-.07h.23l-.07-.22-.06-.19c-.2-.59-.4-1.29-.62-2.15a28.21,28.21,0,0,1-.58-2.91v0a1.92,1.92,0,0,1,.57-1.78,1.78,1.78,0,0,1,1.09-.35h.22a1.67,1.67,0,0,1,1.31.86,3.61,3.61,0,0,1,.37.92,5.68,5.68,0,0,1,.14,1.17,8.51,8.51,0,0,0,.67,2.63,5.43,5.43,0,0,0,.54.91,3.13,3.13,0,0,0,.7.71,3.68,3.68,0,0,0,1,.51,4.08,4.08,0,0,0,1.29.19h0q.35,0,1.14-.09a4,4,0,0,0,1.4-.45,4.46,4.46,0,0,0,1.43-1.21,2.92,2.92,0,0,0,.39-.61,1.09,1.09,0,0,1,.89-.57h.06a1,1,0,0,1,.88.48A6.25,6.25,0,0,0,158.93,55a4.41,4.41,0,0,0,2,.87,6,6,0,0,0,1.71.08,4.73,4.73,0,0,0,1.26-.32,3.16,3.16,0,0,0,.86-.54,4.84,4.84,0,0,0,.64-.74s0,0,0-.08a1.09,1.09,0,0,1,1-.49,1.06,1.06,0,0,1,.88.73c.11.36.23.71.36,1.06l0,.11h.12l3.32.05h.24l-.07-.22q-.28-.9-.57-1.83c-.3-1-.61-2.17-.92-3.4-.2-.8-.37-1.61-.52-2.41l-3.7-.26c.1.52.21,1.06.33,1.6s.27,1.2.44,1.88a1.12,1.12,0,0,1-.07.7,2.94,2.94,0,0,1-2.24,1.71,3.27,3.27,0,0,1-1.72-.25l-.08,0A3.39,3.39,0,0,1,161,51.83a7.92,7.92,0,0,1-.73-1.74,15.43,15.43,0,0,1-.43-2c0-.29-.07-.57-.11-.86-1.28-.07-2.58-.12-3.89-.17,0,.36.06.72.11,1.07a18.66,18.66,0,0,0,.53,2.76,1.08,1.08,0,0,1-.08.77,4.05,4.05,0,0,1-.69,1,2.91,2.91,0,0,1-1.5.88A2.7,2.7,0,0,1,152,53a2.43,2.43,0,0,1-.74-.85,7.19,7.19,0,0,1-.34-.75,4.83,4.83,0,0,1-.22-.91c-.06-.46-.12-.87-.19-1.22a3.43,3.43,0,0,0-.21-.74,1.61,1.61,0,0,0-.26-.45,3,3,0,0,0-.48-.43,1.05,1.05,0,0,1-.43-.73h0l-2.88,0a1.33,1.33,0,0,1-.19.14,2.2,2.2,0,0,1-.57.26,2.71,2.71,0,0,1-.84.07,2.41,2.41,0,0,1-.67-.12h0a4.19,4.19,0,0,1-.49-.14,1.07,1.07,0,0,1-.39-.22l-4.14,0c.1.68.21,1.36.32,2s.23,1.33.37,2a1.11,1.11,0,0,1-.13.73l0,0a5.65,5.65,0,0,1-1,1.28,3.52,3.52,0,0,1-1.61.89,2.24,2.24,0,0,1-.52.06,2.59,2.59,0,0,1-1.78-.8,3.83,3.83,0,0,1-1.09-2.06,11.4,11.4,0,0,1-.27-2.16,15.17,15.17,0,0,1,0-1.9l-3.6.15A18.72,18.72,0,0,0,130,52.06Z"/><path class="cls-22" d="M103.08,53.45a9.65,9.65,0,0,0,.43,1.8,5.14,5.14,0,0,0,.75,1.39,2.74,2.74,0,0,0,1,.83,3.2,3.2,0,0,0,1.58.21l1.23-.13a4,4,0,0,0,1.46-.53,5.67,5.67,0,0,0,1.6-1.47,4.37,4.37,0,0,0,.5-.78,1.06,1.06,0,0,1,1.88,0,5,5,0,0,0,1.14,1.51,3.32,3.32,0,0,0,1.82.76,5.43,5.43,0,0,0,1.67,0,5.24,5.24,0,0,0,1.32-.44,3.77,3.77,0,0,0,1-.7,6.5,6.5,0,0,0,.78-.91l.06-.1a1.06,1.06,0,0,1,1.09-.46,1,1,0,0,1,.83.84l.21,1,0,.15h.15l3.46-.16h.2l0-.2c-.15-.75-.3-1.53-.44-2.32-.18-1.1-.36-2.33-.53-3.66-.11-.9-.2-1.8-.26-2.71-1.24.08-2.48.16-3.72.26,0,.64.11,1.29.17,1.95s.13,1.3.22,2a1,1,0,0,1-.11.61,3.3,3.3,0,0,1-.75,1,3.16,3.16,0,0,1-1.52.83,2.86,2.86,0,0,1-1.77-.18l-.1,0a3.09,3.09,0,0,1-1.27-1.47,8.34,8.34,0,0,1-.53-1.86,15.13,15.13,0,0,1-.2-2.13v-.25c-1.31.13-2.61.27-3.92.43v.55a21.86,21.86,0,0,0,.2,2.81,1.15,1.15,0,0,1-.13.67l0,.06a6,6,0,0,1-1,1.39,3.43,3.43,0,0,1-1.66,1,2.4,2.4,0,0,1-.46.05,2.6,2.6,0,0,1-1.88-.93,3.78,3.78,0,0,1-.94-2.15,13.83,13.83,0,0,1-.12-2.23c0-.12,0-.26,0-.39-1.2.17-2.39.36-3.59.55A17.63,17.63,0,0,0,103.08,53.45Z"/><path class="cls-22" d="M173.81,51.92a9.85,9.85,0,0,0,.74,1.62,6.15,6.15,0,0,0,1,1.35,4.33,4.33,0,0,0,1.33.92,4.72,4.72,0,0,0,1.77.36h.67a4.46,4.46,0,0,0,.76-.07,4.66,4.66,0,0,0,1-.28,3.2,3.2,0,0,0,.9-.58,3.46,3.46,0,0,0,.76-1,4.37,4.37,0,0,0,.38-1.11l0-.1-.25-.23-.11.14a4.18,4.18,0,0,1-.5.53,3.1,3.1,0,0,1-1.59.78,2.65,2.65,0,0,1-2.23-.74,4.15,4.15,0,0,1-1.26-1.89,10.78,10.78,0,0,1-.51-2c-.06-.36-.11-.74-.14-1.13L173,48.13A16,16,0,0,0,173.81,51.92Z"/><path class="cls-22" d="M46.56,98.93a1.83,1.83,0,0,1-1.35.59h-.13a1.57,1.57,0,0,1-1-.51q-3.44.4-6.84.66c0,.51,0,1,0,1.48a14.41,14.41,0,0,0,.27,2.84,5.76,5.76,0,0,0,.81,2.08,2.41,2.41,0,0,0,1.3,1,4.11,4.11,0,0,0,2.31-.14,6,6,0,0,0,2.55-1.62,8.17,8.17,0,0,0,1-1.27,9.93,9.93,0,0,0,.92-1.76,14.73,14.73,0,0,0,.74-2.39c.09-.4.16-.82.22-1.27l-.53.07A2.75,2.75,0,0,1,46.56,98.93Z"/><path class="cls-22" d="M27.45,100.06c0,.29-.07.58-.11.88-.17,1.54-.3,3.34-.39,5.34-.07,1.52-.06,3.11,0,4.72v.23l.21-.07c2.06-.68,4.15-1.35,6.21-2l.12,0V109c0-1.68,0-3.42,0-5.15,0-1.21.09-2.54.18-4Q30.56,100.06,27.45,100.06Z"/><path class="cls-22" d="M17.41,103.16c-.22,2-.42,4.18-.6,6.48-.13,1.69-.2,3.36-.21,5v.24l.23-.08c2-.72,4-1.44,6-2.12l.12,0v-.12c0-1.89.1-3.85.2-5.82.05-1,.11-2,.19-3.11s.17-2.2.27-3.35a1.23,1.23,0,0,0,0-.19q-2.92-.09-5.74-.37C17.7,100.81,17.55,102,17.41,103.16Z"/><path class="cls-22" d="M59.32,98.38a2.74,2.74,0,0,1-2.17,1.48,1.88,1.88,0,0,1-1.71-.8h0a4,4,0,0,1-.64-1.6c-1.53.26-3.07.51-4.6.74,0,.13,0,.26,0,.38a10.64,10.64,0,0,0,.31,1.84,6,6,0,0,0,.49,1.3,3.42,3.42,0,0,0,1.48,1.62l.06,0a2.27,2.27,0,0,0,.91.28,5.66,5.66,0,0,0,.6,0,5.88,5.88,0,0,0,.9-.08,6.48,6.48,0,0,0,1.77-.54,6.21,6.21,0,0,0,1.69-1.14,7.76,7.76,0,0,0,1.48-2,13.11,13.11,0,0,0,1-2.6c.09-.33.16-.67.24-1l-1.1.22A8.4,8.4,0,0,1,59.32,98.38Z"/><path class="cls-22" d="M78.17,92.54A4.69,4.69,0,0,1,77.34,94a3.69,3.69,0,0,1-1.22,1,2.68,2.68,0,0,1-1.63.25h0A2.93,2.93,0,0,1,72.57,94l-.06-.1-3.89.89c0,.25,0,.5,0,.74A10.52,10.52,0,0,0,69,97.33a3.73,3.73,0,0,0,.67,1.32,2.4,2.4,0,0,0,1,.75,2.48,2.48,0,0,0,.91.15,4.85,4.85,0,0,0,.71-.06,3.71,3.71,0,0,0,1.26-.39,6.24,6.24,0,0,0,1.16-.79,6.73,6.73,0,0,0,.93-1,11,11,0,0,0,.77-1.19A10.54,10.54,0,0,0,77,94.91a1.06,1.06,0,0,1,1.94,0,5.88,5.88,0,0,0,.71,1.17,3.65,3.65,0,0,0,1.38,1.06,3.76,3.76,0,0,0,1.56.36h.16a7.18,7.18,0,0,0,1.62-.18A7.37,7.37,0,0,0,86,96.72,4.61,4.61,0,0,0,87.06,96l.07-.07a5.13,5.13,0,0,0,1-1,9,9,0,0,0,.72-1.11c.08-.15.16-.3.23-.45l.06-.12-.46-.35-.1.13a4.54,4.54,0,0,1-.75.72,3.61,3.61,0,0,1-1.52.7,2.89,2.89,0,0,1-1.73-.23,4.23,4.23,0,0,1-1.09-.86,3.87,3.87,0,0,1-1-2h0c-1.4.36-2.84.73-4.3,1.09C78.18,92.5,78.18,92.52,78.17,92.54Z"/><path class="cls-22" d="M115.23,85.15a8.8,8.8,0,0,1-1,2.73,3,3,0,0,1-1.69,1.39,2.58,2.58,0,0,1-1.78-.12,1.06,1.06,0,0,1-.58-1.23c.07-.24.18-.72.35-1.62.1-.5.19-1.09.28-1.77-1.85.31-3.68.63-5.5,1-.14,1.13-.31,2.21-.5,3.21a1.08,1.08,0,0,1-.5.71l-.14.08.07.14a1,1,0,0,1,.07.21,1.07,1.07,0,0,1-.22.94,3.14,3.14,0,0,1-.81.69,2.39,2.39,0,0,1-1.64.29l-.09,0a1.49,1.49,0,0,1-.54-.29,1.41,1.41,0,0,1-.52-.93l-.33,0a2.11,2.11,0,0,0-.13.57,4.38,4.38,0,0,0,.15,1.4,2.39,2.39,0,0,0,.59,1,.08.08,0,0,1,0,0,3.47,3.47,0,0,0,1.07.68,3.18,3.18,0,0,0,1.21.2l.63,0a8.89,8.89,0,0,0,2.52-.8,7.29,7.29,0,0,0,2.21-1.67,1.08,1.08,0,0,1,1.35-.18c.19.12.46.27.83.46a8.82,8.82,0,0,0,1.21.51,7.62,7.62,0,0,0,1.46.35,5.89,5.89,0,0,0,1.57,0,5.54,5.54,0,0,0,1.62-.49,5.68,5.68,0,0,0,1.57-1.14,6.38,6.38,0,0,0,1.45-2.6,20.36,20.36,0,0,0,.8-4c.06-.56.1-1.13.13-1.72-1.67.22-3.33.45-5,.7C115.39,84.29,115.32,84.74,115.23,85.15Z"/><path class="cls-22" d="M195.72,81.59a1.08,1.08,0,0,1-.07.79,2.84,2.84,0,0,1-.75,1,3.14,3.14,0,0,1-1.52.7,3.61,3.61,0,0,1-1.74-.14l-.08,0a3.31,3.31,0,0,1-1.45-1.19,6.85,6.85,0,0,1-.83-1.62c-.08-.22-.15-.46-.22-.71l-4.46-.13a15.06,15.06,0,0,0,.46,1.72,1.08,1.08,0,0,1-.07.86,4.46,4.46,0,0,1-.72,1,3.19,3.19,0,0,1-1.53.86,3,3,0,0,1-2.24-.42,2.39,2.39,0,0,1-.83-.78,6.85,6.85,0,0,1-.39-.71,4,4,0,0,1-.26-.88c-.08-.43-.16-.81-.23-1.12a2.34,2.34,0,0,0-.21-.6c-1.49,0-3,0-4.54,0a1.73,1.73,0,0,1,.4.41,3.22,3.22,0,0,1,.44.89,5.22,5.22,0,0,1,.19,1.13,6.83,6.83,0,0,0,.75,2.36,4.91,4.91,0,0,0,.59.81,3,3,0,0,0,.76.63,4.76,4.76,0,0,0,1.12.44,5.36,5.36,0,0,0,1.5.11c.25,0,.67-.06,1.24-.14a5.24,5.24,0,0,0,1.56-.51A5,5,0,0,0,184.13,85a3.93,3.93,0,0,0,.41-.58,1,1,0,0,1,.83-.54,1.07,1.07,0,0,1,.92.39,5.79,5.79,0,0,0,1.42,1.29,5.19,5.19,0,0,0,2.24.71,7.74,7.74,0,0,0,1.88,0,6,6,0,0,0,1.4-.38,3.64,3.64,0,0,0,1-.58,4,4,0,0,0,.67-.71l.06-.09a1.06,1.06,0,0,1,1-.45,1.05,1.05,0,0,1,.86.67c.12.3.25.61.38.9l0,.11h.12l3.71-.16h.24l-.08-.23c-.2-.49-.39-1-.58-1.51-.33-.89-.66-1.9-1-3l-4.16-.2C195.52,80.91,195.61,81.24,195.72,81.59Z"/><path class="cls-22" d="M213.27,82.4a4.9,4.9,0,0,1-.64.65,3.62,3.62,0,0,1-1.59.76,3,3,0,0,1-2.26-.53,3.75,3.75,0,0,1-1.4-1.72l-.12-.31-4-.25a9.28,9.28,0,0,0,.37,1,7.59,7.59,0,0,0,.78,1.42,5.86,5.86,0,0,0,1.08,1.15,4.75,4.75,0,0,0,1.43.76,5.84,5.84,0,0,0,2,.23l.65,0a6,6,0,0,0,.91-.12,6.2,6.2,0,0,0,1.1-.34,4,4,0,0,0,1-.6,3.77,3.77,0,0,0,.81-1,3.59,3.59,0,0,0,.33-.84l0-.11-.3-.22Z"/><path class="cls-22" d="M166.37,80.09l.15.72c.14.61.29,1.25.45,1.91a1.09,1.09,0,0,1-.12.81l.14.1-.17-.06a5.38,5.38,0,0,1-1.06,1.25,4,4,0,0,1-1.64.88,2.66,2.66,0,0,1-2.34-.59,3.59,3.59,0,0,1-1.26-2,10.69,10.69,0,0,1-.36-2.07c0-.29,0-.59,0-.89-1.34,0-2.68.06-4,.11a15,15,0,0,0,.54,3.87,7.53,7.53,0,0,0,.63,1.59,4.88,4.88,0,0,0,.94,1.26,3.73,3.73,0,0,0,1.31.79,4,4,0,0,0,1.41.22l.46,0,.67,0a5.67,5.67,0,0,0,.93-.16,6.8,6.8,0,0,0,1.15-.42,4.43,4.43,0,0,0,1.13-.75,4.85,4.85,0,0,0,.77-.88,1,1,0,0,1,1.87.28q.18.53.36,1l0,.12h.13l4.11-.25h.23l-.11-.29c-.22-.54-.45-1.19-.71-2a23.34,23.34,0,0,1-.69-2.72v-.05a1.73,1.73,0,0,1,.57-1.8l0,0Z"/><path class="cls-22" d="M148.41,82.08c.08.58.19,1.23.31,1.93a1,1,0,0,1-.12.68,3.27,3.27,0,0,1-.78,1,3.5,3.5,0,0,1-1.55.82,3.35,3.35,0,0,1-1.8-.1l-.1,0A3,3,0,0,1,143,85a6.78,6.78,0,0,1-.65-1.78,13.81,13.81,0,0,1-.29-2.06,1.09,1.09,0,0,1,0-.18c-1.47.1-2.95.2-4.42.32,0,.22,0,.45,0,.66a19.84,19.84,0,0,0,.31,2.67,1.06,1.06,0,0,1-.11.72,2.87,2.87,0,0,1-.47.64,3.09,3.09,0,0,1-1.24.81,2.83,2.83,0,0,1-1.62.09,3.55,3.55,0,0,1-1.89-1.12,4.94,4.94,0,0,1-1-1.82,9.45,9.45,0,0,1-.38-2.1l-3,.3a15.65,15.65,0,0,0,.39,4.16,8.49,8.49,0,0,0,.58,1.65,4.34,4.34,0,0,0,.87,1.27,3.64,3.64,0,0,0,1.26.83,3.89,3.89,0,0,0,1.48.25h.32a4,4,0,0,0,1.27-.24,4.92,4.92,0,0,0,1.06-.59,4,4,0,0,0,.79-.75,6.17,6.17,0,0,0,.63-.94l.13-.26.05-.1a1.07,1.07,0,0,1,.9-.59H138a1.07,1.07,0,0,1,.9.5,4.66,4.66,0,0,0,1.26,1.38,4,4,0,0,0,2.08.69,7,7,0,0,0,1.87-.09,6.25,6.25,0,0,0,1.46-.49,4.3,4.3,0,0,0,1.06-.72,6.66,6.66,0,0,0,.81-.89l.06-.1a1.06,1.06,0,0,1,1.9.34c.08.32.16.63.25.94l0,.13h.14l3.91-.31h.2l-.05-.2c-.17-.68-.35-1.38-.51-2.1-.24-1-.47-2.2-.69-3.46-.12-.67-.22-1.34-.3-2-1.39.06-2.8.12-4.21.2C148.27,81.11,148.34,81.6,148.41,82.08Z"/></g></svg>